<?xml version="1.0" encoding="utf-8"?>
<!-- Generator: Adobe Illustrator 25.2.1, SVG Export Plug-In . SVG Version: 6.00 Build 0)  -->
<svg version="1.1" id="Layer_1" xmlns="http://www.w3.org/2000/svg" xmlns:xlink="http://www.w3.org/1999/xlink" x="0px" y="0px"
	 viewBox="0 0 815.76 287.89" style="enable-background:new 0 0 815.76 287.89;" xml:space="preserve">
<style type="text/css">
	.st0{opacity:0.3;fill:url(#SVGID_1_);}
	.st1{fill:#FFFFFF;}
	.st2{fill:url(#SVGID_2_);}
	.st3{fill:url(#SVGID_3_);}
	.st4{fill:url(#SVGID_4_);}
</style>
<g>
	<linearGradient id="SVGID_1_" gradientUnits="userSpaceOnUse" x1="47.2675" y1="130.3232" x2="815.7624" y2="130.3232">
		<stop  offset="0" style="stop-color:#FFFFFF;stop-opacity:0"/>
		<stop  offset="0.5" style="stop-color:#FFFFFF"/>
		<stop  offset="1" style="stop-color:#FFFFFF;stop-opacity:0"/>
	</linearGradient>
	<rect x="47.27" y="91.98" class="st0" width="768.49" height="76.7"/>
	<g>
		<path class="st1" d="M201.87,102.81h34.32v4.99h-28.74v19.49h26.95v4.99h-26.95v25.68h-5.58V102.81z"/>
		<path class="st1" d="M263.85,140.04l-6.52,17.93h-5.66l19.97-55.15h6.83l20.83,55.15h-6.07l-6.7-17.93H263.85z M284.91,135.05
			c-5.74-15.53-8.78-23.33-9.92-27.26h-0.08c-1.34,4.4-4.75,13.97-9.38,27.26H284.91z"/>
		<path class="st1" d="M324.34,157.96v-55.15h7.83c8.28,13.08,27.11,42.36,30.41,48.36h0.09c-0.5-7.56-0.43-15.94-0.43-24.93v-23.42
			h5.5v55.15h-7.3c-7.79-12.41-27.12-43.32-30.85-49.44h-0.09c0.4,6.81,0.35,15.44,0.35,25.42v24.02H324.34z"/>
		<path class="st1" d="M410.38,107.8h-18.2v-4.99h42.15v4.99h-18.25v50.16h-5.7V107.8z"/>
		<path class="st1" d="M458.53,140.04L452,157.96h-5.66l19.97-55.15h6.83l20.83,55.15h-6.07l-6.7-17.93H458.53z M479.59,135.05
			c-5.74-15.53-8.78-23.33-9.92-27.26h-0.08c-1.34,4.4-4.75,13.97-9.38,27.26H479.59z"/>
		<path class="st1" d="M521.27,142.91c1.58,7.01,6.3,11,14.88,11c9.42,0,13.07-4.59,13.07-10.22c0-5.91-2.74-9.43-14.39-12.28
			c-12.26-3.02-17.07-7.11-17.07-14.97c0-7.67,5.62-14.4,17.66-14.4c12.58,0,17.83,7.49,18.56,14.43h-5.78
			c-1.14-5.46-4.64-9.61-13.03-9.61c-7.4,0-11.48,3.4-11.48,9.14c0,5.67,3.39,7.88,13.33,10.32c15.61,3.85,18.12,10.02,18.12,16.85
			c0,8.47-6.22,15.46-19.31,15.46c-13.83,0-19.29-7.83-20.37-15.71H521.27z"/>
		<path class="st1" d="M588.09,102.81v55.15h-5.63v-55.15H588.09z"/>
		<path class="st1" d="M625.71,140.04l-6.52,17.93h-5.66l19.97-55.15h6.83l20.83,55.15h-6.07l-6.7-17.93H625.71z M646.77,135.05
			c-5.74-15.53-8.78-23.33-9.92-27.26h-0.08c-1.34,4.4-4.75,13.97-9.38,27.26H646.77z"/>
	</g>
	<g>
		<linearGradient id="SVGID_2_" gradientUnits="userSpaceOnUse" x1="2.377" y1="141.3619" x2="140.0129" y2="141.3619">
			<stop  offset="0" style="stop-color:#DF166B"/>
			<stop  offset="0.0543" style="stop-color:#CC1A6C"/>
			<stop  offset="0.1544" style="stop-color:#B21F6E"/>
			<stop  offset="0.2566" style="stop-color:#9F2270"/>
			<stop  offset="0.3606" style="stop-color:#912472"/>
			<stop  offset="0.4673" style="stop-color:#892472"/>
			<stop  offset="0.581" style="stop-color:#872573"/>
			<stop  offset="1" style="stop-color:#56266E"/>
		</linearGradient>
		<path class="st2" d="M34.22,112.35c0,0,78.41-1.17,105.8,14.04c-14.04,18.72-103.92,44-103.92,44H2.39
			C2.39,170.4,0.98,135.75,34.22,112.35z"/>
		<linearGradient id="SVGID_3_" gradientUnits="userSpaceOnUse" x1="0" y1="85.1979" x2="190.5699" y2="85.1979">
			<stop  offset="0" style="stop-color:#5E439A"/>
			<stop  offset="5.556840e-03" style="stop-color:#5D449B"/>
			<stop  offset="0.0819" style="stop-color:#5454A4"/>
			<stop  offset="0.16" style="stop-color:#4B5FAB"/>
			<stop  offset="0.2402" style="stop-color:#4564AF"/>
			<stop  offset="0.3256" style="stop-color:#4366B0"/>
			<stop  offset="1" style="stop-color:#61C7CA"/>
		</linearGradient>
		<path class="st3" d="M190.57,0v68.81c0,0-166.18,8.19-188.18,101.58C-13.06,65.3,46.15,15.92,190.57,0z"/>
		<linearGradient id="SVGID_4_" gradientUnits="userSpaceOnUse" x1="1.3519" y1="207.1432" x2="140.0129" y2="207.1432">
			<stop  offset="0" style="stop-color:#5E439A"/>
			<stop  offset="5.556840e-03" style="stop-color:#5D449B"/>
			<stop  offset="0.0819" style="stop-color:#5454A4"/>
			<stop  offset="0.16" style="stop-color:#4B5FAB"/>
			<stop  offset="0.2402" style="stop-color:#4564AF"/>
			<stop  offset="0.3256" style="stop-color:#4366B0"/>
			<stop  offset="1" style="stop-color:#61C7CA"/>
		</linearGradient>
		<path class="st4" d="M140.01,191.93c0,0-120.31,8.43-136.69,95.96c-10.3-85.9,17.55-143.24,136.69-161.5
			C140.01,163.61,140.01,191.93,140.01,191.93z"/>
	</g>
</g>
</svg>
