<?xml version="1.0" encoding="utf-8"?>
<!-- Generator: Adobe Illustrator 25.2.1, SVG Export Plug-In . SVG Version: 6.00 Build 0)  -->
<svg version="1.1" id="Layer_1" xmlns="http://www.w3.org/2000/svg" xmlns:xlink="http://www.w3.org/1999/xlink" x="0px" y="0px"
	 viewBox="0 0 82.67 82.67" style="enable-background:new 0 0 82.67 82.67;" xml:space="preserve">
<style type="text/css">
	.st0{fill:#858995;}
	.st1{fill:#010101;}
	.st2{fill-rule:evenodd;clip-rule:evenodd;fill:#858995;}
</style>
<g>
	<g>
		<circle class="st0" cx="41.34" cy="41.34" r="41.34"/>
		<path class="st1" d="M68.89,41.34c0-3.33-2.7-6.03-6.03-6.03c-1.63,0-3.1,0.65-4.18,1.69c-4.12-2.97-9.8-4.89-16.12-5.11
			l2.75-12.92l8.97,1.91c0.11,2.28,1.98,4.1,4.29,4.1c2.38,0,4.31-1.93,4.31-4.31s-1.93-4.31-4.31-4.31c-1.69,0-3.14,0.98-3.84,2.4
			L44.7,16.64c-0.28-0.06-0.57-0.01-0.81,0.15c-0.24,0.16-0.41,0.4-0.47,0.68l-3.07,14.42c-6.42,0.18-12.18,2.1-16.36,5.11
			c-1.08-1.04-2.55-1.68-4.17-1.68c-3.33,0-6.03,2.7-6.03,6.03c0,2.45,1.46,4.55,3.56,5.5c-0.09,0.6-0.14,1.21-0.14,1.82
			c0,9.27,10.8,16.79,24.11,16.79c13.32,0,24.11-7.52,24.11-16.79c0-0.61-0.05-1.22-0.14-1.81C67.41,45.91,68.89,43.8,68.89,41.34z
			 M27.56,45.64c0-2.37,1.93-4.31,4.31-4.31c2.37,0,4.3,1.93,4.3,4.31c0,2.37-1.93,4.31-4.3,4.31
			C29.49,49.95,27.56,48.02,27.56,45.64z M51.57,57.02c-2.94,2.93-8.57,3.16-10.23,3.16c-1.66,0-7.29-0.23-10.22-3.16
			c-0.44-0.44-0.44-1.14,0-1.58c0.44-0.44,1.14-0.44,1.58,0c1.85,1.85,5.81,2.51,8.64,2.51c2.83,0,6.79-0.66,8.65-2.51
			c0.44-0.44,1.14-0.43,1.58,0C52,55.88,52,56.58,51.57,57.02z M50.81,49.95c-2.37,0-4.31-1.93-4.31-4.31
			c0-2.37,1.93-4.31,4.31-4.31c2.37,0,4.31,1.93,4.31,4.31C55.11,48.02,53.18,49.95,50.81,49.95z"/>
	</g>
</g>
</svg>
