<?xml version="1.0" encoding="utf-8"?>
<!-- Generator: Adobe Illustrator 25.2.1, SVG Export Plug-In . SVG Version: 6.00 Build 0)  -->
<svg version="1.1" id="Layer_1" xmlns="http://www.w3.org/2000/svg" xmlns:xlink="http://www.w3.org/1999/xlink" x="0px" y="0px"
	 viewBox="0 0 82.67 82.67" style="enable-background:new 0 0 82.67 82.67;" xml:space="preserve">
<style type="text/css">
	.st0{fill:#858995;}
	.st1{fill:#010101;}
	.st2{fill-rule:evenodd;clip-rule:evenodd;fill:#858995;}
</style>
<g>
	<circle class="st0" cx="41.34" cy="41.34" r="41.34"/>
	<g>
		<g>
			<path class="st1" d="M41.34,20c6.95,0,7.77,0.03,10.52,0.15c2.54,0.12,3.92,0.54,4.83,0.9c1.21,0.47,2.08,1.04,2.99,1.95
				c0.91,0.91,1.47,1.78,1.95,2.99c0.36,0.92,0.78,2.3,0.9,4.83c0.13,2.74,0.15,3.57,0.15,10.52s-0.03,7.77-0.15,10.52
				c-0.12,2.54-0.54,3.92-0.9,4.83c-0.47,1.21-1.04,2.08-1.95,2.99c-0.91,0.91-1.78,1.47-2.99,1.95c-0.92,0.36-2.3,0.78-4.83,0.9
				c-2.74,0.13-3.57,0.15-10.52,0.15c-6.95,0-7.77-0.03-10.52-0.15c-2.54-0.12-3.92-0.54-4.83-0.9c-1.21-0.47-2.08-1.04-2.99-1.95
				c-0.91-0.91-1.47-1.78-1.95-2.99c-0.36-0.92-0.78-2.3-0.9-4.83C20.03,49.11,20,48.29,20,41.34s0.03-7.77,0.15-10.52
				c0.12-2.54,0.54-3.92,0.9-4.83c0.47-1.21,1.04-2.08,1.95-2.99c0.91-0.91,1.78-1.47,2.99-1.95c0.92-0.36,2.3-0.78,4.83-0.9
				C33.56,20.03,34.39,20,41.34,20 M41.34,15.31c-7.07,0-7.95,0.03-10.73,0.16c-2.77,0.13-4.66,0.57-6.32,1.21
				c-1.71,0.67-3.16,1.56-4.61,3c-1.45,1.45-2.34,2.9-3,4.61c-0.64,1.66-1.08,3.55-1.21,6.32c-0.13,2.78-0.16,3.66-0.16,10.73
				c0,7.07,0.03,7.95,0.16,10.73c0.13,2.77,0.57,4.66,1.21,6.32c0.67,1.71,1.56,3.16,3,4.61c1.45,1.45,2.9,2.34,4.61,3
				c1.66,0.64,3.55,1.08,6.32,1.21c2.78,0.13,3.66,0.16,10.73,0.16c7.07,0,7.95-0.03,10.73-0.16c2.77-0.13,4.66-0.57,6.32-1.21
				c1.71-0.67,3.16-1.56,4.61-3c1.45-1.45,2.34-2.9,3-4.61c0.64-1.66,1.08-3.55,1.21-6.32c0.13-2.78,0.16-3.66,0.16-10.73
				s-0.03-7.95-0.16-10.73c-0.13-2.77-0.57-4.66-1.21-6.32c-0.67-1.71-1.56-3.16-3-4.61c-1.45-1.45-2.9-2.34-4.61-3
				c-1.66-0.64-3.55-1.08-6.32-1.21C49.29,15.34,48.4,15.31,41.34,15.31L41.34,15.31z"/>
			<path class="st1" d="M41.34,27.97c-7.38,0-13.36,5.98-13.36,13.36S33.95,54.7,41.34,54.7c7.38,0,13.36-5.98,13.36-13.36
				S48.72,27.97,41.34,27.97z M41.34,50.01c-4.79,0-8.68-3.88-8.68-8.68s3.88-8.68,8.68-8.68s8.68,3.88,8.68,8.68
				S46.13,50.01,41.34,50.01z"/>
			<circle class="st1" cx="55.23" cy="27.44" r="3.12"/>
		</g>
	</g>
</g>
</svg>
