<?xml version="1.0" encoding="utf-8"?>
<!-- Generator: Adobe Illustrator 25.2.1, SVG Export Plug-In . SVG Version: 6.00 Build 0)  -->
<svg version="1.1" id="Layer_1" xmlns="http://www.w3.org/2000/svg" xmlns:xlink="http://www.w3.org/1999/xlink" x="0px" y="0px"
	 viewBox="0 0 82.67 82.67" style="enable-background:new 0 0 82.67 82.67;" xml:space="preserve">
<style type="text/css">
	.st0{fill:#858995;}
	.st1{fill:#010101;}
	.st2{fill-rule:evenodd;clip-rule:evenodd;fill:#858995;}
</style>
<g>
	<circle class="st0" cx="41.34" cy="41.34" r="41.34"/>
	<path class="st1" d="M61.46,24.54c-0.16-0.46-0.35-0.59-0.64-0.7c-0.64-0.24-1.74,0.12-1.74,0.12S20.45,37.85,18.24,39.39
		c-0.48,0.33-0.63,0.52-0.71,0.75c-0.38,1.1,0.81,1.58,0.81,1.58l9.96,3.24c0,0,0.37,0.05,0.5-0.03
		c2.27-1.43,22.79-14.39,23.97-14.83c0.19-0.06,0.32,0.01,0.29,0.14c-0.47,1.66-18.3,17.51-18.3,17.51s-0.07,0.08-0.11,0.18
		l-0.02-0.01l-0.93,9.88c0,0-0.39,3.03,2.64,0c2.13-2.13,4.2-3.92,5.23-4.79c3.42,2.36,7.11,4.98,8.7,6.35
		c0.8,0.69,1.47,0.8,2.02,0.78c1.51-0.06,1.93-1.71,1.93-1.71s7.04-28.33,7.28-32.13c0.02-0.37,0.05-0.61,0.06-0.86
		C61.55,25.07,61.52,24.71,61.46,24.54z"/>
</g>
</svg>
