<?xml version="1.0" encoding="utf-8"?>
<!-- Generator: Adobe Illustrator 25.2.1, SVG Export Plug-In . SVG Version: 6.00 Build 0)  -->
<svg version="1.1" id="Layer_1" xmlns="http://www.w3.org/2000/svg" xmlns:xlink="http://www.w3.org/1999/xlink" x="0px" y="0px"
	 viewBox="0 0 82.67 82.67" style="enable-background:new 0 0 82.67 82.67;" xml:space="preserve">
<style type="text/css">
	.st0{fill:#858995;}
	.st1{fill:#010101;}
	.st2{fill-rule:evenodd;clip-rule:evenodd;fill:#858995;}
</style>
<g>
	<circle class="st0" cx="41.34" cy="41.34" r="41.34"/>
	<path class="st1" d="M67.74,28.07c-0.63-2.37-2.5-4.24-4.87-4.87c-4.3-1.15-21.53-1.15-21.53-1.15s-17.23,0-21.53,1.15
		c-2.37,0.63-4.24,2.5-4.87,4.87c-1.15,4.3-1.15,13.27-1.15,13.27s0,8.97,1.15,13.27c0.63,2.37,2.5,4.24,4.87,4.87
		c4.3,1.15,21.53,1.15,21.53,1.15s17.23,0,21.53-1.15c2.37-0.63,4.24-2.5,4.87-4.87c1.15-4.3,1.15-13.27,1.15-13.27
		S68.89,32.37,67.74,28.07z M35.82,49.6V33.07l14.32,8.27L35.82,49.6z"/>
</g>
</svg>
