<?xml version="1.0" encoding="utf-8"?>
<!-- Generator: Adobe Illustrator 25.2.1, SVG Export Plug-In . SVG Version: 6.00 Build 0)  -->
<svg version="1.1" id="Layer_1" xmlns="http://www.w3.org/2000/svg" xmlns:xlink="http://www.w3.org/1999/xlink" x="0px" y="0px"
	 viewBox="0 0 82.67 82.67" style="enable-background:new 0 0 82.67 82.67;" xml:space="preserve">
<style type="text/css">
	.st0{fill:#858995;}
	.st1{fill:#010101;}
	.st2{fill-rule:evenodd;clip-rule:evenodd;fill:#858995;}
</style>
<g>
	<circle class="st2" cx="41.34" cy="41.34" r="41.34"/>
	<g>
		<g>
			<path class="st1" d="M32.98,65.14c20.19,0,31.23-16.73,31.23-31.23c0-0.48-0.01-0.95-0.03-1.42c2.14-1.55,4.01-3.48,5.48-5.68
				c-1.97,0.87-4.08,1.46-6.3,1.73c2.27-1.36,4.01-3.51,4.83-6.07c-2.12,1.26-4.47,2.17-6.97,2.66c-2-2.13-4.86-3.47-8.01-3.47
				c-6.06,0-10.98,4.92-10.98,10.98c0,0.86,0.1,1.7,0.28,2.5c-9.12-0.46-17.21-4.83-22.62-11.47c-0.94,1.62-1.49,3.51-1.49,5.52
				c0,3.81,1.94,7.17,4.88,9.14c-1.8-0.06-3.49-0.55-4.97-1.37c0,0.05,0,0.09,0,0.14c0,5.32,3.78,9.75,8.81,10.76
				c-0.92,0.25-1.89,0.39-2.89,0.39c-0.71,0-1.39-0.07-2.06-0.2c1.4,4.36,5.45,7.53,10.25,7.62c-3.76,2.94-8.49,4.7-13.63,4.7
				c-0.89,0-1.76-0.05-2.62-0.15C21.02,63.33,26.78,65.14,32.98,65.14"/>
		</g>
	</g>
</g>
</svg>
