<?xml version="1.0" encoding="utf-8"?>
<!-- Generator: Adobe Illustrator 25.2.1, SVG Export Plug-In . SVG Version: 6.00 Build 0)  -->
<svg version="1.1" id="Layer_1" xmlns="http://www.w3.org/2000/svg" xmlns:xlink="http://www.w3.org/1999/xlink" x="0px" y="0px"
	 viewBox="0 0 82.67 82.67" style="enable-background:new 0 0 82.67 82.67;" xml:space="preserve">
<style type="text/css">
	.st0{fill:#858995;}
	.st1{fill:#010101;}
	.st2{fill-rule:evenodd;clip-rule:evenodd;fill:#858995;}
</style>
<g>
	<circle class="st2" cx="41.34" cy="41.34" r="41.34"/>
	<g>
		<g>
			<path class="st1" d="M55.57,31.59c-0.01,1.14-0.07,2.27-0.15,3.4c-0.01,0.19-0.02,0.39-0.02,0.58c-0.01,0.42,0.23,0.59,0.65,0.55
				c0.15-0.01,0.31-0.05,0.45-0.11c0.41-0.15,0.82-0.3,1.23-0.45c0.69-0.26,1.37-0.52,2.09-0.69c0.48-0.11,0.96-0.17,1.46-0.06
				c1.11,0.26,1.69,1.36,1.26,2.43c-0.11,0.28-0.28,0.52-0.48,0.74c-0.29,0.32-0.61,0.59-0.97,0.83c-0.42,0.28-0.84,0.56-1.26,0.83
				c-0.7,0.46-1.4,0.92-2.1,1.39c-0.29,0.19-0.57,0.4-0.85,0.61c-0.15,0.12-0.29,0.25-0.42,0.4c-0.26,0.29-0.38,0.64-0.36,1.03
				c0.02,0.37,0.09,0.74,0.19,1.1c0.33,1.16,0.84,2.24,1.46,3.28c1.14,1.9,2.61,3.52,4.33,4.92c1.46,1.19,3.05,2.16,4.73,2.99
				c0.15,0.07,0.3,0.15,0.44,0.24c0.11,0.07,0.21,0.15,0.28,0.26c0.11,0.16,0.13,0.33,0.03,0.51c-0.08,0.15-0.2,0.27-0.33,0.37
				c-0.19,0.16-0.4,0.28-0.62,0.4c-0.96,0.52-1.97,0.89-3.02,1.17c-0.45,0.12-0.89,0.25-1.34,0.38c-0.31,0.09-0.6,0.23-0.89,0.38
				c-0.48,0.25-0.76,0.65-0.86,1.17c-0.06,0.29-0.09,0.59-0.14,0.88c-0.13,0.73-0.4,1.01-1.12,1.13c-0.25,0.04-0.51,0.07-0.77,0.08
				c-0.64,0.04-1.29,0.05-1.93,0.09c-1.46,0.08-2.9,0.31-4.29,0.76c-0.59,0.19-1.16,0.44-1.69,0.75c-0.57,0.33-1.13,0.67-1.7,1.01
				c-0.89,0.54-1.8,1.05-2.78,1.43c-1.09,0.42-2.22,0.67-3.38,0.78c-0.98,0.09-1.96,0.08-2.94-0.03c-1.46-0.16-2.85-0.59-4.16-1.26
				c-0.61-0.31-1.2-0.66-1.78-1.02c-0.43-0.26-0.86-0.52-1.29-0.78c-1.03-0.61-2.14-1.01-3.31-1.26c-1.06-0.23-2.14-0.36-3.22-0.4
				c-0.57-0.02-1.14-0.05-1.7-0.08c-0.32-0.02-0.64-0.06-0.96-0.14c-0.44-0.12-0.72-0.38-0.81-0.84c-0.05-0.25-0.09-0.51-0.13-0.76
				c-0.01-0.05-0.01-0.1-0.02-0.15c-0.1-0.68-0.43-1.17-1.07-1.46c-0.39-0.18-0.79-0.32-1.2-0.43c-0.71-0.2-1.42-0.37-2.11-0.62
				c-0.61-0.22-1.2-0.48-1.76-0.79c-0.17-0.09-0.33-0.19-0.49-0.3c-0.11-0.07-0.21-0.16-0.3-0.25c-0.33-0.34-0.3-0.65,0.08-0.95
				c0.18-0.14,0.4-0.24,0.61-0.34c1.48-0.72,2.87-1.57,4.18-2.57c1.86-1.43,3.45-3.11,4.68-5.11c0.66-1.07,1.19-2.2,1.54-3.41
				c0.11-0.39,0.19-0.78,0.2-1.18c0.02-0.4-0.12-0.73-0.38-1.02c-0.16-0.17-0.34-0.32-0.52-0.46c-0.54-0.4-1.1-0.77-1.66-1.14
				c-0.71-0.47-1.43-0.93-2.14-1.39c-0.36-0.23-0.7-0.49-1.01-0.78c-0.23-0.21-0.43-0.45-0.59-0.72c-0.34-0.56-0.36-1.15-0.11-1.74
				c0.18-0.41,0.48-0.7,0.9-0.86c0.46-0.18,0.93-0.19,1.41-0.12c0.56,0.09,1.1,0.27,1.64,0.46c0.55,0.2,1.09,0.41,1.63,0.61
				c0.25,0.1,0.51,0.19,0.78,0.23c0.06,0.01,0.13,0.03,0.19,0.03c0.31-0.01,0.57-0.11,0.57-0.53c0-0.35-0.02-0.7-0.04-1.04
				c-0.13-1.88-0.18-3.77-0.1-5.65c0.05-1.2,0.17-2.39,0.44-3.57c0.37-1.63,1.05-3.12,2.07-4.46c1.87-2.47,4.34-4.04,7.3-4.87
				c1.62-0.46,3.27-0.61,4.94-0.55c1.77,0.06,3.48,0.38,5.13,1.02c1.57,0.61,3,1.45,4.23,2.6c1.55,1.45,2.75,3.14,3.4,5.18
				c0.29,0.93,0.48,1.87,0.59,2.83C55.58,28.59,55.59,30.09,55.57,31.59z"/>
		</g>
	</g>
</g>
</svg>
