<?xml version="1.0" standalone="no"?>
<!DOCTYPE svg PUBLIC "-//W3C//DTD SVG 1.1//EN" "http://www.w3.org/Graphics/SVG/1.1/DTD/svg11.dtd" >
<svg>
<metadata>
Created by FontForge 20110222 at Mon Aug 26 06:57:23 2013
 By www-data
Copyright (c) 2011 by Tyler Finck. All rights reserved.
</metadata>
<defs>
<font id="OstrichSansInline-Italic" horiz-adv-x="391" >
  <font-face 
    font-family="Ostrich Sans Inline"
    font-weight="400"
    font-style="italic"
    font-stretch="normal"
    units-per-em="1000"
    panose-1="2 0 5 8 2 0 0 9 0 4"
    ascent="800"
    descent="-200"
    x-height="674"
    cap-height="674"
    bbox="-55 -139 779.523 847"
    underline-thickness="50"
    underline-position="0"
    stemh="18"
    stemv="18"
    unicode-range="U+0020-20AC"
  />
    <missing-glyph />
    <glyph glyph-name="space" unicode=" " horiz-adv-x="241" 
 />
    <glyph glyph-name="dollar" unicode="$" horiz-adv-x="340" 
d="M298 201c-14 -54 -46 -99 -106 -106l56 223c28 -29 62 -68 50 -117zM195 477c12 45 51 91 99 102l-56 -224c-29 31 -55 71 -43 122zM156 28h19l12 48c67 4 113 64 128 124c16 61 -25 107 -62 140l60 240c69 -1 59 -75 46 -129h18l1 6c17 66 18 140 -60 142l12 48h-19
l-12 -49c-59 -10 -109 -66 -122 -120c-16 -64 18 -108 56 -145l-60 -238c-66 4 -58 83 -45 135h-18l-4 -14c-16 -66 -11 -132 62 -140zM122 0l13 54c-70 20 -74 90 -56 162l11 41h72c-11 -42 -21 -100 -7 -121l46 183c-39 39 -70 88 -52 159c14 57 66 118 127 141l14 56h74
l-13 -51c80 -13 74 -94 55 -167l-8 -34h-74c11 46 24 100 7 119l-47 -188c37 -36 75 -90 59 -154c-16 -66 -64 -131 -135 -148l-12 -52h-74zM223 477c-5 -21 -5 -36 4 -54l27 107c-14 -15 -26 -35 -31 -53zM270 201c4 18 -2 39 -11 54l-30 -120c21 15 34 39 41 66z" />
    <glyph glyph-name="percent" unicode="%" horiz-adv-x="469" 
d="M481 647l-402 -619h18l403 619h-19zM413 150c-8 -32 -35 -63 -70 -63s-45 30 -37 63l20 81c8 32 34 62 69 62s46 -31 38 -62zM399 309c-45 0 -79 -36 -90 -78l-20 -81c-11 -42 5 -81 50 -81s79 39 90 81l20 81c11 42 -5 78 -50 78zM150 443l20 80c8 33 33 62 68 62
c36 0 46 -28 38 -62l-20 -80c-8 -33 -33 -63 -69 -63c-35 0 -45 31 -37 63zM274 443l20 80c11 43 -6 81 -51 81c-44 0 -81 -39 -91 -81l-20 -80c-11 -42 7 -80 51 -80c45 0 80 37 91 80zM302 443c-14 -57 -64 -108 -126 -108s-86 52 -72 108l20 80c14 56 64 109 126 109
s86 -52 72 -109zM178 443c-5 -19 -1 -35 16 -35s29 16 34 35l20 80c5 19 0 34 -17 34s-29 -16 -33 -34zM406 337c63 0 85 -50 71 -106l-20 -81c-14 -55 -62 -109 -125 -109c-62 0 -85 54 -71 109l20 81c14 56 63 106 125 106zM385 150l20 81c4 17 0 34 -17 34
c-16 0 -29 -16 -34 -34l-20 -81c-5 -19 -1 -35 16 -35s30 16 35 35zM469 674h78l-438 -674h-77z" />
    <glyph glyph-name="ampersand" unicode="&#x26;" horiz-adv-x="446" 
d="M320 118c-41 -48 -95 -72 -151 -72c-71 0 -103 61 -86 128c14 57 104 124 155 155zM229 548c12 46 47 79 94 79c58 0 53 -48 41 -97c-17 -68 -55 -124 -114 -173c-24 56 -38 122 -21 191zM164 28c60 0 113 23 162 73l24 -73h19l-23 68h1l-6 22c43 58 61 126 78 191h-18
c-16 -61 -29 -115 -68 -172l-77 204c63 49 109 117 127 189c14 59 17 117 -55 117c-59 0 -104 -43 -118 -99c-18 -72 0 -144 23 -204c-61 -40 -151 -102 -168 -171c-20 -79 17 -145 99 -145zM158 0c-99 0 -145 79 -121 173c18 75 98 135 162 178c-22 60 -34 125 -16 197
s76 126 152 126c95 0 93 -72 75 -144c-18 -71 -63 -141 -121 -194c21 -58 27 -69 50 -132c17 40 28 83 40 132h74c-18 -75 -41 -159 -81 -218l2 -8l35 -110h-80l-20 53c-45 -36 -94 -53 -151 -53zM256 548c-13 -51 -7 -100 8 -145c37 37 60 77 73 127c8 35 12 70 -21 70
c-29 0 -52 -21 -60 -52zM287 119l-66 170c-44 -31 -101 -79 -110 -115c-13 -52 11 -101 65 -101c40 0 80 16 111 46z" />
    <glyph glyph-name="parenleft" unicode="(" horiz-adv-x="186" 
d="M131 46c-44 79 -24 206 -2 293c20 81 71 215 145 286l-5 19c-95 -88 -140 -217 -162 -305c-22 -87 -43 -219 8 -306zM167 44l-62 -50c-70 90 -45 253 -22 345c23 93 83 259 206 350l18 -70c-85 -63 -136 -204 -155 -280c-25 -102 -34 -218 15 -295z" />
    <glyph glyph-name="parenright" unicode=")" horiz-adv-x="178" 
d="M44 46l10 -13c93 87 138 219 160 306c22 88 41 217 -10 305l-15 -19c40 -71 23 -205 3 -286c-22 -87 -64 -214 -148 -293zM44 -6l-38 50c89 77 138 193 163 295c19 76 38 217 -15 280l52 70c79 -91 55 -257 32 -350c-23 -92 -80 -255 -194 -345z" />
    <glyph glyph-name="asterisk" unicode="*" horiz-adv-x="315" 
d="M386 559l-1 19l-102 -34l25 99h-19l-25 -99l-82 34l-11 -17c27 -11 54 -23 81 -34l-87 -78l12 -12l91 82l50 -83l19 14c-17 26 -35 51 -50 77zM416 543l-85 -28l14 -21l29 -45l-68 -53l-49 80l-86 -77l-46 47l78 70c-5 3 -9 4 -14 6l-56 23l41 68l73 -30l22 87h73
l-22 -88l90 31z" />
    <glyph glyph-name="plus" unicode="+" horiz-adv-x="346" 
d="M353 344h-110l30 118h-18l-30 -118h-108l-4 -18h108l-30 -118h18l30 118h110zM387 372l-18 -74h-109l-29 -117h-74l29 117h-108l18 74h108l29 117h74l-29 -117h109z" />
    <glyph glyph-name="comma" unicode="," horiz-adv-x="99" 
d="M7 -31l47 68h-22l-40 -68h15zM19 -59h-74l74 123h82z" />
    <glyph glyph-name="hyphen" unicode="-" horiz-adv-x="319" 
d="M330 325l4 18h-216l-4 -18h216zM350 298h-271l18 73h271z" />
    <glyph glyph-name="period" unicode="." horiz-adv-x="127" 
d="M53 28l6 21h-19l-6 -21h19zM72 0h-68l18 76h68z" />
    <glyph glyph-name="slash" unicode="/" horiz-adv-x="388" 
d="M452 647l-402 -619h19l403 619h-20zM440 674h79l-438 -674h-78z" />
    <glyph glyph-name="zero" unicode="0" horiz-adv-x="354" 
d="M308 633c80 0 84 -69 67 -137l-79 -317c-17 -69 -56 -138 -136 -138s-87 70 -70 139l79 317c18 70 59 136 139 136zM155 23c84 0 137 68 156 144l85 341c19 75 0 143 -83 143c-87 0 -138 -64 -158 -143l-85 -341c-19 -75 1 -144 85 -144zM148 -5c-104 0 -128 82 -106 172
l85 341c24 94 86 171 193 171c103 0 127 -81 104 -171l-85 -341c-23 -91 -87 -172 -191 -172zM301 605c-59 0 -90 -52 -104 -108l-79 -317c-13 -55 -10 -111 49 -111c58 0 87 55 101 110l79 317c14 54 12 109 -46 109z" />
    <glyph glyph-name="one" unicode="1" horiz-adv-x="214" 
d="M279 647l-119 -119l8 -11l105 101l-148 -590h19l155 619h-20zM273 674h60l-168 -674h-73l134 538l-66 -61l-37 48l52 53z" />
    <glyph glyph-name="two" unicode="2" horiz-adv-x="338" 
d="M260 28l5 17h-203c63 247 264 245 318 464c19 73 9 143 -76 143c-93 0 -134 -87 -151 -163h18c16 64 47 145 129 145c72 0 78 -63 63 -123c-54 -218 -252 -194 -325 -483h222zM282 0h-277c48 193 127 262 201 326c55 48 107 94 130 185c11 46 8 95 -43 95
c-57 0 -86 -81 -102 -145h-71c23 102 74 219 191 219c106 0 119 -84 97 -171c-29 -117 -94 -175 -162 -235c-58 -51 -117 -102 -149 -201h203z" />
    <glyph glyph-name="three" unicode="3" horiz-adv-x="324" 
d="M298 185c16 64 15 132 -50 150c70 19 110 93 125 154c18 71 19 162 -69 162c-90 0 -135 -99 -155 -171h18c18 62 53 153 133 153c76 0 69 -85 54 -144c-19 -79 -71 -139 -155 -146l-4 -17c85 -5 104 -58 84 -141c-16 -62 -49 -144 -127 -144c-84 0 -71 86 -56 152h-18
c-21 -81 -30 -170 69 -170c93 0 131 85 151 162zM326 185c-23 -89 -70 -190 -186 -190c-124 0 -109 118 -83 225h71c-14 -66 -28 -151 31 -151c54 0 80 66 93 116c16 67 -6 110 -92 114l18 70c84 7 133 55 149 120c12 48 19 116 -34 116c-57 0 -89 -91 -107 -152h-72
c27 94 84 226 197 226c110 0 111 -107 90 -190c-13 -54 -43 -114 -94 -152c32 -36 33 -96 19 -152z" />
    <glyph glyph-name="four" unicode="4" horiz-adv-x="344" 
d="M316 268h-200l286 342zM411 647l-315 -379l-5 -20h220l-55 -220h18l155 619h-18zM402 674h62l-168 -674h-73l54 220h-221l14 56zM296 296l53 213l-178 -213h125z" />
    <glyph glyph-name="five" unicode="5" horiz-adv-x="330" 
d="M393 647h-203l-87 -348h17c22 45 66 91 116 91c82 0 75 -72 58 -138l-19 -78c-15 -60 -54 -134 -127 -134c-89 0 -71 87 -53 155h-18l-5 -22c-19 -76 -17 -150 72 -150c83 0 132 78 149 149l22 87c19 76 15 150 -75 150c-37 0 -79 -23 -105 -55l68 275h185zM428 674
l-18 -72h-186l-46 -184c23 12 46 18 69 18c113 0 118 -87 95 -177l-22 -87c-21 -84 -80 -177 -183 -177c-111 0 -115 89 -92 178l12 49h72c-18 -68 -37 -154 26 -154c52 0 81 58 93 106l19 78c14 53 20 111 -38 111c-35 0 -72 -46 -95 -91h-65l101 402h258z" />
    <glyph glyph-name="six" unicode="6" horiz-adv-x="332" 
d="M116 278c14 57 59 121 124 121c78 0 74 -67 58 -131l-21 -87c-15 -58 -56 -140 -127 -140s-79 58 -64 119zM145 23c80 0 132 85 149 153l23 92c19 75 17 149 -73 149c-39 0 -84 -25 -108 -60l26 107c16 65 57 170 142 170c84 0 68 -75 51 -138h20l6 22
c17 70 7 133 -73 133c-99 0 -144 -109 -164 -187l-77 -309c-18 -73 -3 -132 78 -132zM138 -5c-101 0 -120 71 -98 160l77 309c22 89 75 215 198 215c101 0 114 -77 93 -161l-13 -50h-74c17 64 34 138 -24 138c-62 0 -94 -88 -108 -142l-10 -39c24 12 49 19 72 19
c113 0 116 -87 93 -176l-23 -92c-20 -80 -82 -181 -183 -181zM143 278l-30 -118c-11 -47 -6 -91 44 -91s81 65 93 112l21 87c13 51 17 104 -38 104c-46 0 -79 -50 -90 -94z" />
    <glyph glyph-name="seven" unicode="7" horiz-adv-x="277" 
d="M24 28h18l340 600l5 19h-201l-5 -19h179v-2zM-20 0l335 601h-168l19 73h253l-19 -73l-343 -601h-77z" />
    <glyph glyph-name="eight" unicode="8" horiz-adv-x="352" 
d="M157 39c-80 0 -87 72 -70 140c17 67 61 148 142 148c87 0 87 -76 69 -148c-17 -67 -63 -140 -141 -140zM171 489c17 66 51 144 134 144c82 0 79 -78 62 -144c-17 -69 -48 -146 -134 -146c-84 0 -78 79 -62 146zM387 492c19 77 15 159 -77 159c-94 0 -136 -81 -156 -159
c-14 -58 -24 -125 23 -157c-59 -29 -93 -98 -107 -154c-21 -81 -11 -160 83 -160c90 0 144 82 164 160c14 58 21 128 -34 154c68 27 90 100 104 157zM414 492c-12 -50 -33 -115 -82 -156c32 -39 26 -103 13 -155c-23 -92 -89 -187 -199 -187c-115 0 -127 92 -103 187
c12 51 41 114 90 154c-31 42 -19 103 -6 157c23 92 74 187 190 187c114 0 120 -96 97 -187zM198 489c-13 -55 -18 -118 42 -118c62 0 86 62 100 118c14 53 17 116 -42 116c-60 0 -86 -63 -100 -116zM164 67c58 0 93 58 106 112c15 58 16 120 -48 120
c-60 0 -93 -66 -107 -120c-13 -54 -10 -112 49 -112z" />
    <glyph glyph-name="nine" unicode="9" horiz-adv-x="328" 
d="M331 396c-14 -57 -59 -121 -124 -121c-78 0 -74 68 -58 131l21 87c15 58 56 140 127 140s79 -58 64 -119zM302 651c-80 0 -131 -85 -148 -153l-23 -92c-19 -75 -18 -149 72 -149c39 0 83 24 109 60l-27 -107c-16 -65 -57 -170 -142 -170c-84 0 -68 75 -51 138h-19l-6 -22
c-17 -70 -8 -133 72 -133c100 0 145 108 165 187l77 309c18 73 2 132 -79 132zM309 679c101 0 121 -71 99 -160l-77 -309c-23 -91 -75 -215 -199 -215c-101 0 -113 77 -92 161l13 50h73c-17 -64 -34 -138 24 -138c62 0 94 88 108 142l9 38c-22 -11 -48 -18 -71 -18
c-113 0 -114 87 -92 176l23 92c20 80 81 181 182 181zM304 396l30 118c11 47 6 91 -44 91s-81 -65 -93 -112l-21 -87c-13 -51 -17 -104 38 -104c46 0 79 50 90 94z" />
    <glyph glyph-name="colon" unicode=":" horiz-adv-x="133" 
d="M70 161h18l10 41h-18zM149 478l-11 -41h18l11 41h-18zM127 505h74l-23 -95h-74zM35 133l24 97h74l-24 -97h-74z" />
    <glyph glyph-name="semicolon" unicode=";" horiz-adv-x="117" 
d="M51 142l46 67h-21l-42 -67h17zM151 478l-11 -41h23l11 41h-23zM130 505h77l-23 -95h-77zM58 115h-65l75 122h74z" />
    <glyph glyph-name="equal" unicode="=" horiz-adv-x="332" 
d="M314 261h-216l-5 -18h216zM362 457h-216l-4 -17h216zM396 485l-18 -73h-271l18 73h271zM347 288l-18 -72h-271l18 72h271z" />
    <glyph glyph-name="question" unicode="?" horiz-adv-x="346" 
d="M137 124l11 43c37 149 81 165 129 214v-1c31 31 58 59 73 118c14 58 12 108 -50 108c-63 0 -102 -94 -119 -163h-73c26 105 90 237 211 237c111 0 130 -82 106 -178c-21 -81 -73 -141 -132 -197c-46 -46 -58 -81 -73 -142l-10 -39h-73zM180 0h-73l20 84h73zM159 28l8 29
h-19l-8 -29h19zM171 152h19c12 48 27 106 86 170v0c61 58 101 102 121 180c20 81 6 150 -85 150c-99 0 -149 -101 -169 -182h17c17 69 61 164 147 164c84 0 89 -64 71 -136c-38 -151 -152 -126 -203 -331z" />
    <glyph glyph-name="at" unicode="@" horiz-adv-x="667" 
d="M312 180c-54 0 -62 51 -50 97c16 64 106 213 184 213c45 0 54 -29 44 -71c-6 -22 -17 -43 -27 -65c-28 -64 -64 -174 -151 -174zM553 120c-67 -38 -142 -60 -210 -60c-150 0 -243 93 -204 249c40 163 192 299 359 299c131 0 187 -85 155 -214
c-27 -107 -109 -228 -232 -228c-17 0 -13 20 -10 31c11 45 114 247 141 303h-20l-19 -39c1 26 -18 48 -46 48c-110 0 -202 -139 -226 -233c-15 -63 2 -115 71 -115c26 0 55 7 78 28c-4 -19 3 -40 25 -40c134 0 227 122 257 242c34 138 -25 234 -167 234
c-182 0 -341 -142 -385 -319c-41 -165 62 -264 219 -264c77 0 157 25 231 69zM559 152l65 -37c-107 -64 -209 -100 -292 -100c-171 0 -286 109 -240 291c48 193 221 347 420 347c159 0 226 -107 187 -262c-33 -134 -138 -270 -291 -270c-20 0 -35 10 -42 24
c-19 -8 -42 -12 -61 -12c-89 0 -110 65 -91 143c26 105 132 260 260 260c16 0 31 -5 41 -13c0 0 2 3 2 4h76l-42 -86c-40 -80 -105 -211 -113 -244c0 0 -2 -3 -7 -3c102 2 172 107 195 200c28 112 -21 186 -135 186c-151 0 -288 -123 -324 -271c-35 -138 48 -222 183 -222
c63 0 138 24 209 65zM319 208c53 0 84 72 107 126l13 27l6 13c6 14 14 28 18 45c6 25 1 44 -24 44c-62 0 -137 -131 -150 -186c-9 -34 -4 -69 30 -69z" />
    <glyph glyph-name="backslash" unicode="\" horiz-adv-x="400" 
d="M225 647h-19l92 -619h20zM250 674l102 -674h-79l-101 674h78z" />
    <glyph glyph-name="underscore" unicode="_" horiz-adv-x="481" 
d="M407 -2l4 18h-366l-4 -18h366zM427 -29h-420l18 72h420z" />
    <glyph glyph-name="quoteleft" unicode="&#x2018;" horiz-adv-x="101" 
d="M187 647l-18 -71h18l18 71h-18zM167 674h73l-32 -126h-73z" />
    <glyph glyph-name="quotedblleft" unicode="&#x201c;" horiz-adv-x="212" 
d="M187 647l-18 -71h18l18 71h-18zM167 674h73l-32 -126h-73zM287 647l-18 -71h18l18 71h-18zM267 674h73l-32 -126h-73z" />
    <glyph glyph-name="quotedblright" unicode="&#x201d;" horiz-adv-x="191" 
d="M197 647l-18 -71h18l18 71h-18zM177 674h73l-32 -126h-73zM297 647l-18 -71h18l18 71h-18zM277 674h73l-32 -126h-73z" />
    <glyph glyph-name="quoteright" unicode="&#x2019;" horiz-adv-x="101" 
d="M187 647l-18 -71h18l18 71h-18zM167 674h73l-32 -126h-73z" />
    <glyph glyph-name="quotesingle" unicode="'" horiz-adv-x="101" 
d="M169 576h18l18 71h-18zM134 548l32 126h74l-32 -126h-74z" />
    <glyph glyph-name="a" unicode="a" horiz-adv-x="435" 
d="M342 601l-7 -363h-166zM69 28l91 192h174l-5 -192h18l14 619h-14l-297 -619h19zM85 0h-75l322 674h58l-15 -674h-75l6 193h-128zM312 479l-101 -214h96z" />
    <glyph glyph-name="b" unicode="b" horiz-adv-x="349" 
d="M151 46h-91l70 281h84c93 0 112 -53 90 -141c-21 -84 -60 -140 -153 -140zM205 629h69c91 0 117 -53 95 -141c-21 -83 -69 -144 -159 -144h-76zM387 488c26 103 -5 159 -110 159h-86l-155 -619h113c103 0 150 64 174 158c17 67 12 137 -56 152c71 25 104 85 120 150z
M415 488c-14 -57 -39 -111 -89 -146c39 -34 40 -96 25 -156c-28 -111 -84 -186 -208 -186h-140l168 674h113c125 0 161 -66 131 -186zM226 602l-58 -230h49c70 0 107 49 124 116c18 70 -1 114 -73 114h-42zM158 73c71 0 101 45 118 113c17 70 4 113 -69 113h-57l-56 -226h64
z" />
    <glyph glyph-name="c" unicode="c" horiz-adv-x="381" 
d="M172 21c113 0 158 86 182 182h-18c-20 -82 -59 -164 -160 -164c-85 0 -103 68 -84 144l77 309c19 76 72 144 157 144c101 0 98 -81 77 -164h18c28 111 7 181 -91 181c-97 0 -156 -70 -179 -161l-77 -309c-23 -91 1 -162 98 -162zM165 -6c-116 0 -146 82 -119 189l77 309
c27 107 98 189 214 189c134 0 144 -82 105 -237h-74c21 83 37 164 -49 164c-66 0 -106 -54 -122 -116l-77 -309c-15 -62 -3 -117 63 -117c79 0 109 71 132 165h74c-31 -126 -74 -237 -224 -237z" />
    <glyph glyph-name="d" unicode="d" horiz-adv-x="378" 
d="M60 45l145 584h92c95 0 113 -66 91 -152l-69 -280c-22 -86 -72 -152 -167 -152h-92zM154 28c103 0 157 70 180 164l73 290c23 92 4 165 -98 165h-116l-155 -619h116zM148 0h-144l168 674h144c122 0 146 -84 119 -192l-73 -290c-27 -109 -91 -192 -214 -192zM95 73h64
c75 0 114 54 132 124l69 280c18 70 6 125 -69 125h-64z" />
    <glyph glyph-name="f" unicode="f" horiz-adv-x="310" 
d="M397 629l5 18h-215l-154 -619h17l75 299h132l4 17h-132l71 285h197zM419 602h-198l-58 -230h133l-18 -73h-133l-74 -299h-71l167 674h270z" />
    <glyph glyph-name="g" unicode="g" 
d="M174 21c95 0 156 75 178 161l40 162h-127l-4 -17h109l-36 -145c-19 -74 -74 -143 -156 -143c-84 0 -103 66 -84 143l75 302c20 80 71 152 160 152c88 0 96 -77 76 -155h18c25 98 5 172 -90 172s-158 -72 -180 -160l-77 -311c-22 -88 3 -161 98 -161zM167 -6
c-115 0 -145 85 -119 188l77 311c26 104 100 188 215 188c125 0 139 -87 104 -224h-73c20 77 25 151 -49 151c-69 0 -110 -59 -126 -124l-75 -302c-16 -63 -1 -116 64 -116c63 0 106 56 121 116l29 117h-108l18 73h181l-47 -190c-25 -101 -98 -188 -212 -188z" />
    <glyph glyph-name="h" unicode="h" horiz-adv-x="348" 
d="M421 647l-76 -304h-212l76 304h-17l-155 -619h17l75 298h212l-75 -298h19l155 619h-19zM401 674h73l-168 -674h-73l74 298h-157l-74 -298h-73l168 674h73l-76 -303h157z" />
    <glyph glyph-name="j" unicode="j" horiz-adv-x="355" 
d="M149 21c95 0 143 73 164 156l118 473h-18l-116 -464c-18 -70 -58 -147 -144 -147c-92 0 -85 81 -65 159h-19c-30 -119 -9 -177 80 -177zM142 -6c-120 0 -131 81 -93 232h73c-19 -74 -37 -160 38 -160c64 0 95 63 109 120l123 492h74l-125 -501
c-25 -98 -83 -183 -199 -183z" />
    <glyph glyph-name="k" unicode="k" horiz-adv-x="337" 
d="M423 647h-22l-275 -340l85 340h-19l-155 -619h19l62 247l57 66l88 -313h21l-92 333zM479 675l-257 -315l103 -360h-85l-81 287l-16 -19l-66 -268h-73l168 675h73l-67 -267l214 267h87z" />
    <glyph glyph-name="l" unicode="l" horiz-adv-x="281" 
d="M201 28l5 17h-153l150 602h-18l-155 -619h171zM222 0h-225l168 674h72l-150 -601h153z" />
    <glyph glyph-name="m" unicode="m" horiz-adv-x="427" 
d="M52 28l134 534l3 -534h17l269 535l-134 -535h19l155 619h-17l-290 -573l-3 573h-16l-155 -619h18zM74 0h-74l168 674h65l3 -488l248 488h65l-168 -674h-73l86 348l-173 -348h-59l-3 343z" />
    <glyph glyph-name="n" unicode="n" horiz-adv-x="385" 
d="M196 590c29 -188 55 -375 84 -562h15l155 619h-17l-140 -562l-86 562h-16l-155 -619h19zM187 446l-111 -446h-73l168 674h61l68 -446l112 446h73l-168 -674h-61c-16 94 -32 205 -69 446z" />
    <glyph glyph-name="o" unicode="o" 
d="M327 635c91 0 100 -74 81 -153l-74 -294c-20 -80 -66 -148 -156 -148s-102 72 -82 151l73 292c19 76 70 152 158 152zM174 21c99 0 154 70 177 162l77 309c22 87 0 163 -96 163c-95 0 -157 -76 -179 -163l-77 -309c-22 -90 1 -162 98 -162zM167 -6
c-116 0 -145 83 -119 189l77 309c26 102 99 189 213 189c115 0 144 -87 118 -189l-77 -309c-27 -108 -94 -189 -212 -189zM320 607c-68 0 -108 -61 -124 -124l-73 -292c-16 -64 -7 -124 62 -124c70 0 105 56 121 121l74 294c16 64 10 125 -60 125z" />
    <glyph glyph-name="p" unicode="p" horiz-adv-x="343" 
d="M204 628h80c95 0 121 -49 98 -140c-23 -94 -76 -144 -173 -144h-76zM129 326c133 0 231 -5 272 162c23 93 -1 159 -102 159h-107l-155 -619h17zM150 298l-74 -298h-73l168 674h135c121 0 150 -76 122 -186c-43 -172 -143 -190 -278 -190zM225 601l-57 -229h48
c78 0 120 40 139 116c18 73 -2 113 -78 113h-52z" />
    <glyph glyph-name="q" unicode="q" horiz-adv-x="393" 
d="M174 39c-85 0 -99 81 -80 155l74 296c19 78 70 146 155 146s103 -68 84 -145l-76 -304c-10 -39 -23 -82 -57 -114l-31 50h-21l37 -62c-27 -14 -58 -22 -85 -22zM320 -8l-39 65c41 35 55 83 67 129l77 309c22 87 -3 158 -98 158c-93 0 -154 -71 -176 -158l-77 -309
c-22 -86 2 -165 96 -165c32 0 66 9 96 27l32 -56h22zM370 -36h-92l-28 48c-29 -13 -58 -18 -87 -18c-113 0 -142 91 -117 192l77 309c26 103 99 186 211 186c114 0 145 -83 119 -186l-77 -309c-11 -44 -25 -90 -59 -129zM181 66c12 0 23 1 35 5l-45 80h93l17 -30
c10 20 17 45 22 66l76 304c15 62 3 117 -63 117s-105 -55 -120 -118l-74 -296c-15 -61 -7 -128 59 -128z" />
    <glyph glyph-name="r" unicode="r" horiz-adv-x="346" 
d="M209 344h-85l71 284h94c98 0 103 -58 81 -143c-23 -95 -60 -141 -161 -141zM388 485c24 95 16 162 -90 162h-117l-155 -619h19l75 298h96c84 0 102 -35 82 -116l-46 -182h19l47 185c13 53 14 108 -43 122c71 20 98 90 113 150zM416 485c-12 -51 -36 -111 -82 -148
c23 -29 22 -79 11 -124l-53 -213h-73l52 210c15 62 1 88 -62 88h-69l-74 -298h-73l168 674h144c129 0 139 -77 111 -189zM216 372c79 0 107 37 126 113c18 69 15 116 -60 116h-67l-57 -229h58z" />
    <glyph glyph-name="u" unicode="u" horiz-adv-x="387" 
d="M170 22c91 0 154 61 176 149l119 476h-18l-118 -471c-19 -78 -72 -137 -155 -137c-82 0 -105 59 -86 137l118 471h-18l-118 -476c-22 -88 9 -149 100 -149zM163 -6c-109 0 -147 72 -121 177l125 504h74l-125 -499c-15 -62 2 -109 65 -109c64 0 105 47 120 109l125 499h74
l-126 -504c-26 -105 -101 -177 -211 -177z" />
    <glyph glyph-name="v" unicode="v" horiz-adv-x="394" 
d="M466 647l-274 -576l11 576h-19l-11 -619h15l297 619h-19zM451 675h75l-322 -674h-59l11 674h76l-9 -480z" />
    <glyph glyph-name="w" unicode="w" horiz-adv-x="589" 
d="M663 647l-262 -565l42 565h-15l-239 -565l16 565h-17l-20 -619h14l238 555l-41 -555h15l288 619h-19zM648 674h75l-313 -674h-61l30 420c-60 -141 -123 -286 -179 -420h-60l21 674h73l-13 -448c63 151 130 304 190 448h63l-34 -448z" />
    <glyph glyph-name="x" unicode="x" horiz-adv-x="350" 
d="M25 28h19l181 281l40 -281h19c-14 102 -29 204 -43 306l195 313h-19l-180 -288l-35 288h-20c12 -105 26 -209 39 -313zM-22 0l214 335c-23 170 -34 273 -41 339h77l28 -237l148 237h78l-211 -339c5 -39 10 -80 47 -335h-78l-34 234l-149 -234h-79z" />
    <glyph glyph-name="y" unicode="y" horiz-adv-x="353" 
d="M437 647l-194 -310l-40 310h-19c12 -113 28 -223 42 -335l-71 -284h19l71 284l211 335h-19zM425 674h78l-232 -367l-76 -307h-74l76 307c-27 205 -40 306 -46 367h78l33 -258c55 86 112 176 163 258z" />
    <glyph glyph-name="z" unicode="z" horiz-adv-x="355" 
d="M56 48l378 576l6 23h-239l-5 -19h220v-1l-379 -576l-6 -23h257l5 18h-237v2zM460 618l-357 -545h225l-18 -73h-312l14 57l357 544h-208l19 73h294z" />
    <glyph glyph-name="bar" unicode="|" horiz-adv-x="109" 
d="M63 28l156 625h-18l-156 -625h18zM84 0h-72l169 681h72z" />
    <glyph glyph-name="endash" unicode="&#x2013;" horiz-adv-x="319" 
d="M330 326l4 18h-216l-4 -18h216zM350 298h-271l18 74h271z" />
    <glyph glyph-name="emdash" unicode="&#x2014;" horiz-adv-x="319" 
d="M330 326l4 18h-216l-4 -18h216zM350 298h-271l18 74h271z" />
    <glyph glyph-name="t" unicode="t" horiz-adv-x="347" 
d="M429 647h-242l-5 -18h111l-150 -601h19l150 601h112zM463 675l-18 -73h-112l-150 -601h-73l150 601h-112l18 73h297z" />
    <glyph glyph-name="s" unicode="s" horiz-adv-x="363" 
d="M165 22c90 0 146 51 168 140c36 146 -186 213 -152 349c17 68 69 125 142 125c97 0 82 -86 65 -155h17c26 104 23 173 -77 173c-80 0 -144 -61 -163 -138c-20 -81 34 -151 84 -196h-1c38 -39 81 -103 67 -159c-19 -76 -69 -122 -146 -122c-99 0 -87 95 -70 163h-19
c-28 -110 -16 -180 85 -180zM158 -6c-125 0 -137 82 -98 236h73c-23 -93 -31 -163 43 -163c58 0 96 36 111 94c13 53 -28 103 -61 138l1 -1c-55 48 -113 126 -90 218c23 93 100 165 197 165c135 0 124 -101 93 -227h-73c19 78 33 154 -38 154c-55 0 -94 -44 -107 -97
c-14 -55 29 -101 71 -149v1c51 -58 101 -118 80 -201c-27 -106 -94 -168 -202 -168z" />
    <glyph glyph-name="e" unicode="e" horiz-adv-x="323" 
d="M400 629l5 18h-215l-154 -619h214l5 17h-197l70 282h132l4 17h-132l71 285h197zM422 602h-198l-58 -230h132l-18 -73h-132l-56 -226h198l-18 -73h-269l167 674h270z" />
    <glyph glyph-name="i" unicode="i" horiz-adv-x="144" 
d="M59 28l155 619h-19l-155 -619h19zM80 0h-73l168 674h73z" />
    <glyph glyph-name="greater" unicode="&#x3e;" horiz-adv-x="257" 
d="M203 647l48 -310l-203 -309h20l201 309l-46 310h-20zM169 674h80l49 -337l-217 -337h-80l220 337c-16 102 -37 238 -52 337z" />
    <glyph glyph-name="asciitilde" unicode="~" horiz-adv-x="320" 
d="M335 346c-10 -3 -23 -9 -32 -9c-43 0 -70 40 -119 40c-24 0 -49 -15 -70 -28l11 -15c17 14 37 23 57 23c43 0 67 -39 114 -39c16 0 34 6 51 12zM349 381l41 -63c-37 -13 -80 -28 -101 -28c-31 0 -51 11 -71 23c-15 8 -28 17 -43 17c-12 0 -34 -14 -60 -34l-42 57
c39 24 86 51 118 51c31 0 53 -12 74 -23h-1c16 -8 31 -16 46 -16c4 0 14 3 23 7z" />
    <glyph glyph-name="tilde" unicode="&#x2dc;" horiz-adv-x="317" 
d="M410 647c-10 -3 -23 -9 -32 -9c-43 0 -69 40 -118 40c-24 0 -50 -15 -71 -28l11 -15c17 14 37 23 57 23c43 0 67 -39 114 -39c16 0 34 6 51 12zM425 682l40 -63c-37 -13 -80 -28 -101 -28c-31 0 -51 11 -71 23c-15 8 -28 17 -43 17c-12 0 -34 -14 -60 -34l-42 57
c40 24 86 51 118 51c31 0 53 -12 75 -23h-1c16 -8 30 -16 45 -16c4 0 14 3 23 7z" />
    <glyph glyph-name="ellipsis" unicode="&#x2026;" horiz-adv-x="335" 
d="M266 28l8 29h-18l-8 -29h18zM161 28l8 29h-20l-8 -29h20zM54 28l8 29h-18l-8 -29h18zM76 0h-73l20 84h73zM182 0h-74l20 84h74zM288 0h-74l20 84h74z" />
    <glyph glyph-name="Euro" unicode="&#x20ac;" horiz-adv-x="386" 
d="M276 242h-151l37 151h151l5 18h-151l19 75c19 77 72 143 156 143c30 0 61 -13 79 -33l16 13c-16 26 -57 38 -90 38c-145 0 -171 -128 -198 -236h-56l-5 -18h56l-37 -151h-56l-5 -18h56c-25 -102 -33 -196 90 -196c39 0 90 19 122 50c-7 0 -12 3 -18 6
c-25 -27 -68 -38 -99 -38c-109 0 -98 93 -77 178h151zM311 270l-18 -73h-152c-13 -64 -11 -124 63 -124c25 0 62 13 93 45c11 -6 62 -32 61 -30c-66 -66 -126 -88 -172 -88c-136 0 -141 91 -118 197h-56l18 73h56l24 96h-56l18 72h56c28 115 65 236 226 236
c40 0 92 -21 121 -66l-62 -50c-23 27 -53 44 -77 44c-65 0 -108 -54 -123 -116l-12 -48h152l-18 -72h-152l-24 -96h152z" />
    <glyph glyph-name="grave" unicode="`" horiz-adv-x="166" 
d="M235 571l-28 76h-21l31 -76h18zM277 544h-81l-55 131h88z" />
    <glyph glyph-name="acute" unicode="&#xb4;" horiz-adv-x="217" 
d="M251 572l67 75h-19l-61 -75h13zM258 545h-74l106 130h85z" />
    <glyph glyph-name="circumflex" unicode="&#x2c6;" horiz-adv-x="186" 
d="M186 563l55 65h6l26 -65h13l-22 84h-29l-64 -84h15zM194 535h-74l105 140h63l39 -140h-74l-20 44z" />
    <glyph glyph-name="dieresis" unicode="&#xa8;" horiz-adv-x="226" 
d="M354 647h-18l-7 -29h18zM209 647h-19l-7 -29h19zM243 675l-21 -84h-73l21 84h73zM389 675l-21 -84h-74l21 84h74z" />
    <glyph glyph-name="zcaron" unicode="&#x17e;" horiz-adv-x="355" 
d="M299 797l21 -84h29l63 84h-12l-56 -65h-8l-23 65h-14zM56 48l378 576l6 23h-239l-5 -19h220v-1l-379 -576l-6 -23h257l5 18h-237v2zM460 618l-357 -545h225l-18 -73h-312l14 57l357 544h-208l19 73h294zM261 824h75l16 -45l42 45h73l-109 -138h-62z" />
    <glyph glyph-name="less" unicode="&#x3c;" horiz-adv-x="257" 
d="M325 647l-201 -310l46 -309h20l-46 309l201 310h-20zM314 674h78l-218 -337l50 -337h-78l-51 337z" />
    <glyph glyph-name="guilsinglright" unicode="&#x203a;" horiz-adv-x="395" 
d="M209 647l167 -310l-322 -309h20l322 309l-167 310h-20zM158 674h92l182 -337l-350 -337h-92l350 337c-54 102 -131 240 -182 337z" />
    <glyph glyph-name="exclamdown" unicode="&#xa1;" horiz-adv-x="113" 
d="M204 648h-18l-7 -30h18zM158 535l-126 -506h18l126 506h-18zM71 1h-73l139 561h74zM144 591l21 84h74l-21 -84h-74z" />
    <glyph glyph-name="guilsinglleft" unicode="&#x2039;" horiz-adv-x="395" 
d="M449 647l-321 -310l166 -309h22l-167 309l322 310h-22zM442 674h93l-350 -337l182 -337h-92l-183 337z" />
    <glyph glyph-name="A" unicode="A" horiz-adv-x="435" 
d="M342 601l-7 -363h-166zM69 28l91 192h174l-5 -192h18l14 619h-14l-297 -619h19zM85 0h-75l322 674h58l-15 -674h-75l6 193h-128zM312 479l-101 -214h96z" />
    <glyph glyph-name="B" unicode="B" horiz-adv-x="349" 
d="M151 46h-91l70 281h84c93 0 112 -53 90 -141c-21 -84 -60 -140 -153 -140zM205 629h69c91 0 117 -53 95 -141c-21 -83 -69 -144 -159 -144h-76zM387 488c26 103 -5 159 -110 159h-86l-155 -619h113c103 0 150 64 174 158c17 67 12 137 -56 152c71 25 104 85 120 150z
M415 488c-14 -57 -39 -111 -89 -146c39 -34 40 -96 25 -156c-28 -111 -84 -186 -208 -186h-140l168 674h113c125 0 161 -66 131 -186zM226 602l-58 -230h49c70 0 107 49 124 116c18 70 -1 114 -73 114h-42zM158 73c71 0 101 45 118 113c17 70 4 113 -69 113h-57l-56 -226h64
z" />
    <glyph glyph-name="C" unicode="C" horiz-adv-x="381" 
d="M172 21c113 0 158 86 182 182h-18c-20 -82 -59 -164 -160 -164c-85 0 -103 68 -84 144l77 309c19 76 72 144 157 144c101 0 98 -81 77 -164h18c28 111 7 181 -91 181c-97 0 -156 -70 -179 -161l-77 -309c-23 -91 1 -162 98 -162zM165 -6c-116 0 -146 82 -119 189l77 309
c27 107 98 189 214 189c134 0 144 -82 105 -237h-74c21 83 37 164 -49 164c-66 0 -106 -54 -122 -116l-77 -309c-15 -62 -3 -117 63 -117c79 0 109 71 132 165h74c-31 -126 -74 -237 -224 -237z" />
    <glyph glyph-name="D" unicode="D" horiz-adv-x="378" 
d="M60 45l145 584h92c95 0 113 -66 91 -152l-69 -280c-22 -86 -72 -152 -167 -152h-92zM154 28c103 0 157 70 180 164l73 290c23 92 4 165 -98 165h-116l-155 -619h116zM148 0h-144l168 674h144c122 0 146 -84 119 -192l-73 -290c-27 -109 -91 -192 -214 -192zM95 73h64
c75 0 114 54 132 124l69 280c18 70 6 125 -69 125h-64z" />
    <glyph glyph-name="E" unicode="E" horiz-adv-x="323" 
d="M400 629l5 18h-215l-154 -619h214l5 17h-197l70 282h132l4 17h-132l71 285h197zM422 602h-198l-58 -230h132l-18 -73h-132l-56 -226h198l-18 -73h-269l167 674h270z" />
    <glyph glyph-name="F" unicode="F" horiz-adv-x="310" 
d="M397 629l5 18h-215l-154 -619h17l75 299h132l4 17h-132l71 285h197zM419 602h-198l-58 -230h133l-18 -73h-133l-74 -299h-71l167 674h270z" />
    <glyph glyph-name="G" unicode="G" 
d="M174 21c95 0 156 75 178 161l40 162h-127l-4 -17h109l-36 -145c-19 -74 -74 -143 -156 -143c-84 0 -103 66 -84 143l75 302c20 80 71 152 160 152c88 0 96 -77 76 -155h18c25 98 5 172 -90 172s-158 -72 -180 -160l-77 -311c-22 -88 3 -161 98 -161zM167 -6
c-115 0 -145 85 -119 188l77 311c26 104 100 188 215 188c125 0 139 -87 104 -224h-73c20 77 25 151 -49 151c-69 0 -110 -59 -126 -124l-75 -302c-16 -63 -1 -116 64 -116c63 0 106 56 121 116l29 117h-108l18 73h181l-47 -190c-25 -101 -98 -188 -212 -188z" />
    <glyph glyph-name="H" unicode="H" horiz-adv-x="348" 
d="M421 647l-76 -304h-212l76 304h-17l-155 -619h17l75 298h212l-75 -298h19l155 619h-19zM401 674h73l-168 -674h-73l74 298h-157l-74 -298h-73l168 674h73l-76 -303h157z" />
    <glyph glyph-name="I" unicode="I" horiz-adv-x="144" 
d="M59 28l155 619h-19l-155 -619h19zM80 0h-73l168 674h73z" />
    <glyph glyph-name="J" unicode="J" horiz-adv-x="355" 
d="M149 21c95 0 143 73 164 156l118 473h-18l-116 -464c-18 -70 -58 -147 -144 -147c-92 0 -85 81 -65 159h-19c-30 -119 -9 -177 80 -177zM142 -6c-120 0 -131 81 -93 232h73c-19 -74 -37 -160 38 -160c64 0 95 63 109 120l123 492h74l-125 -501
c-25 -98 -83 -183 -199 -183z" />
    <glyph glyph-name="K" unicode="K" horiz-adv-x="334" 
d="M423 647h-22l-275 -340l85 340h-19l-155 -619h19l62 247l57 66l88 -313h21l-92 333zM479 675l-257 -315l103 -360h-85l-81 287l-16 -19l-66 -268h-73l168 675h73l-67 -267l214 267h87z" />
    <glyph glyph-name="L" unicode="L" horiz-adv-x="281" 
d="M201 28l5 17h-153l150 602h-18l-155 -619h171zM222 0h-225l168 674h72l-150 -601h153z" />
    <glyph glyph-name="M" unicode="M" horiz-adv-x="427" 
d="M52 28l134 534l3 -534h17l269 535l-134 -535h19l155 619h-17l-290 -573l-3 573h-16l-155 -619h18zM74 0h-74l168 674h65l3 -488l248 488h65l-168 -674h-73l86 348l-173 -348h-59l-3 343z" />
    <glyph glyph-name="N" unicode="N" horiz-adv-x="385" 
d="M196 590c29 -188 55 -375 84 -562h15l155 619h-17l-140 -562l-86 562h-16l-155 -619h19zM187 446l-111 -446h-73l168 674h61l68 -446l112 446h73l-168 -674h-61c-16 94 -32 205 -69 446z" />
    <glyph glyph-name="O" unicode="O" 
d="M327 635c91 0 100 -74 81 -153l-74 -294c-20 -80 -66 -148 -156 -148s-102 72 -82 151l73 292c19 76 70 152 158 152zM174 21c99 0 154 70 177 162l77 309c22 87 0 163 -96 163c-95 0 -157 -76 -179 -163l-77 -309c-22 -90 1 -162 98 -162zM167 -6
c-116 0 -145 83 -119 189l77 309c26 102 99 189 213 189c115 0 144 -87 118 -189l-77 -309c-27 -108 -94 -189 -212 -189zM320 607c-68 0 -108 -61 -124 -124l-73 -292c-16 -64 -7 -124 62 -124c70 0 105 56 121 121l74 294c16 64 10 125 -60 125z" />
    <glyph glyph-name="P" unicode="P" horiz-adv-x="343" 
d="M204 628h80c95 0 121 -49 98 -140c-23 -94 -76 -144 -173 -144h-76zM129 326c133 0 231 -5 272 162c23 93 -1 159 -102 159h-107l-155 -619h17zM150 298l-74 -298h-73l168 674h135c121 0 150 -76 122 -186c-43 -172 -143 -190 -278 -190zM225 601l-57 -229h48
c78 0 120 40 139 116c18 73 -2 113 -78 113h-52z" />
    <glyph glyph-name="Q" unicode="Q" horiz-adv-x="393" 
d="M174 39c-85 0 -99 81 -80 155l74 296c19 78 70 146 155 146s103 -68 84 -145l-76 -304c-10 -39 -23 -82 -57 -114l-31 50h-21l37 -62c-27 -14 -58 -22 -85 -22zM320 -8l-39 65c41 35 55 83 67 129l77 309c22 87 -3 158 -98 158c-93 0 -154 -71 -176 -158l-77 -309
c-22 -86 2 -165 96 -165c32 0 66 9 96 27l32 -56h22zM370 -36h-92l-28 48c-29 -13 -58 -18 -87 -18c-113 0 -142 91 -117 192l77 309c26 103 99 186 211 186c114 0 145 -83 119 -186l-77 -309c-11 -44 -25 -90 -59 -129zM181 66c12 0 23 1 35 5l-45 80h93l17 -30
c10 20 17 45 22 66l76 304c15 62 3 117 -63 117s-105 -55 -120 -118l-74 -296c-15 -61 -7 -128 59 -128z" />
    <glyph glyph-name="R" unicode="R" horiz-adv-x="346" 
d="M209 344h-85l71 284h94c98 0 103 -58 81 -143c-23 -95 -60 -141 -161 -141zM388 485c24 95 16 162 -90 162h-117l-155 -619h19l75 298h96c84 0 102 -35 82 -116l-46 -182h19l47 185c13 53 14 108 -43 122c71 20 98 90 113 150zM416 485c-12 -51 -36 -111 -82 -148
c23 -29 22 -79 11 -124l-53 -213h-73l52 210c15 62 1 88 -62 88h-69l-74 -298h-73l168 674h144c129 0 139 -77 111 -189zM216 372c79 0 107 37 126 113c18 69 15 116 -60 116h-67l-57 -229h58z" />
    <glyph glyph-name="S" unicode="S" horiz-adv-x="363" 
d="M165 22c90 0 146 51 168 140c36 146 -186 213 -152 349c17 68 69 125 142 125c97 0 82 -86 65 -155h17c26 104 23 173 -77 173c-80 0 -144 -61 -163 -138c-20 -81 34 -151 84 -196h-1c38 -39 81 -103 67 -159c-19 -76 -69 -122 -146 -122c-99 0 -87 95 -70 163h-19
c-28 -110 -16 -180 85 -180zM158 -6c-125 0 -137 82 -98 236h73c-23 -93 -31 -163 43 -163c58 0 96 36 111 94c13 53 -28 103 -61 138l1 -1c-55 48 -113 126 -90 218c23 93 100 165 197 165c135 0 124 -101 93 -227h-73c19 78 33 154 -38 154c-55 0 -94 -44 -107 -97
c-14 -55 29 -101 71 -149v1c51 -58 101 -118 80 -201c-27 -106 -94 -168 -202 -168z" />
    <glyph glyph-name="T" unicode="T" horiz-adv-x="347" 
d="M429 647h-242l-5 -18h111l-150 -601h19l150 601h112zM463 675l-18 -73h-112l-150 -601h-73l150 601h-112l18 73h297z" />
    <glyph glyph-name="U" unicode="U" horiz-adv-x="387" 
d="M170 22c91 0 154 61 176 149l119 476h-18l-118 -471c-19 -78 -72 -137 -155 -137c-82 0 -105 59 -86 137l118 471h-18l-118 -476c-22 -88 9 -149 100 -149zM163 -6c-109 0 -147 72 -121 177l125 504h74l-125 -499c-15 -62 2 -109 65 -109c64 0 105 47 120 109l125 499h74
l-126 -504c-26 -105 -101 -177 -211 -177z" />
    <glyph glyph-name="V" unicode="V" horiz-adv-x="394" 
d="M466 647l-274 -576l11 576h-19l-11 -619h15l297 619h-19zM451 675h75l-322 -674h-59l11 674h76l-9 -480z" />
    <glyph glyph-name="W" unicode="W" horiz-adv-x="588" 
d="M663 647l-262 -565l42 565h-15l-239 -565l16 565h-17l-20 -619h14l238 555l-41 -555h15l288 619h-19zM648 674h75l-313 -674h-61l30 420c-60 -141 -123 -286 -179 -420h-60l21 674h73l-13 -448c63 151 130 304 190 448h63l-34 -448z" />
    <glyph glyph-name="X" unicode="X" horiz-adv-x="350" 
d="M25 28h19l181 281l40 -281h19c-14 102 -29 204 -43 306l195 313h-19l-180 -288l-35 288h-20c12 -105 26 -209 39 -313zM-22 0l214 335c-23 170 -34 273 -41 339h77l28 -237l148 237h78l-211 -339c5 -39 10 -80 47 -335h-78l-34 234l-149 -234h-79z" />
    <glyph glyph-name="Y" unicode="Y" horiz-adv-x="353" 
d="M437 647l-194 -310l-40 310h-19c12 -113 28 -223 42 -335l-71 -284h19l71 284l211 335h-19zM425 674h78l-232 -367l-76 -307h-74l76 307c-27 205 -40 306 -46 367h78l33 -258c55 86 112 176 163 258z" />
    <glyph glyph-name="Z" unicode="Z" horiz-adv-x="355" 
d="M56 48l378 576l6 23h-239l-5 -19h220v-1l-379 -576l-6 -23h257l5 18h-237v2zM460 618l-357 -545h225l-18 -73h-312l14 57l357 544h-208l19 73h294z" />
    <glyph glyph-name="Zcaron" unicode="&#x17d;" horiz-adv-x="355" 
d="M299 797l21 -84h29l63 84h-12l-56 -65h-8l-23 65h-14zM56 48l378 576l6 23h-239l-5 -19h220v-1l-379 -576l-6 -23h257l5 18h-237v2zM460 618l-357 -545h225l-18 -73h-312l14 57l357 544h-208l19 73h294zM261 824h75l16 -45l42 45h73l-109 -138h-62z" />
    <glyph glyph-name="oe" unicode="&#x153;" horiz-adv-x="619" 
d="M330 636c88 0 105 -66 85 -146l-73 -293c-20 -78 -72 -152 -159 -152s-105 68 -86 146l75 299c19 77 72 146 158 146zM669 636l4 17h-217l-17 -69c-6 51 -55 69 -105 69c-97 0 -158 -74 -180 -163l-75 -299c-23 -93 0 -163 99 -163c57 0 108 26 142 80l-20 -80h217l5 17
h-200l71 287h124l5 18h-124l71 286h200zM689 608h-199l-58 -231h124l-18 -73h-124l-57 -231h199l-18 -73h-272l6 28c-30 -19 -64 -28 -100 -28c-119 0 -147 83 -120 191l75 299c25 103 98 191 214 191c32 0 65 -8 89 -23l5 23h272zM323 608c-66 0 -108 -56 -123 -118
l-75 -299c-16 -63 -2 -118 65 -118s108 60 124 124l73 293c16 65 4 118 -64 118z" />
    <glyph glyph-name="guillemotleft" unicode="&#xab;" horiz-adv-x="486" 
d="M604 647l-319 -310l165 -309h21c-56 102 -110 206 -165 309l320 310h-22zM450 647l-320 -310l166 -309h21c-56 101 -110 206 -166 309l321 310h-22zM444 674h92l-350 -337l58 -107c32 -64 90 -170 124 -230h-91l-183 337zM597 674h94l-350 -336l73 -139
c27 -51 79 -148 108 -199h-92l-181 337z" />
    <glyph glyph-name="guillemotright" unicode="&#xbb;" horiz-adv-x="509" 
d="M374 647c55 -104 110 -207 167 -310l-322 -309h20l322 309l-167 310h-20zM210 647c55 -104 111 -207 167 -310l-322 -309h21l323 309l-168 310h-21zM161 674h91l182 -337l-350 -337h-93l351 337c-56 102 -130 239 -181 337zM325 674h90l182 -337l-350 -337h-92l350 337
c-56 102 -129 239 -180 337z" />
    <glyph glyph-name="ordmasculine" unicode="&#xba;" horiz-adv-x="232" 
d="M196 607c7 28 35 51 63 51c29 0 44 -23 37 -51s-34 -49 -62 -49s-45 21 -38 49zM179 607c-9 -36 14 -67 50 -67c37 0 76 31 85 67c9 37 -14 67 -51 67c-36 0 -75 -30 -84 -67zM152 607c13 51 66 94 117 94s85 -43 72 -94s-68 -94 -119 -94s-83 43 -70 94zM223 607
c-3 -12 5 -22 17 -22c13 0 26 10 29 22c3 14 -3 24 -17 24c-13 0 -26 -10 -29 -24z" />
    <glyph glyph-name="questiondown" unicode="&#xbf;" horiz-adv-x="346" 
d="M328 551l-11 -43c-37 -149 -81 -165 -129 -214v1c-31 -31 -58 -59 -72 -118c-15 -58 -12 -108 50 -108c63 0 101 94 118 163h73c-26 -105 -90 -237 -211 -237c-111 0 -129 82 -105 178c20 81 73 141 132 197c45 46 57 81 72 142l10 39h73zM286 675h73l-21 -84h-73z
M325 647h-19l-7 -29h19zM290 508l4 15h-19c-12 -48 -27 -106 -85 -170v0c-62 -58 -102 -102 -121 -180c-21 -81 -7 -150 84 -150c99 0 149 101 170 182h-17c-18 -69 -61 -164 -147 -164c-84 0 -89 64 -71 136c37 151 151 126 202 331z" />
    <glyph glyph-name="AE" unicode="&#xc6;" horiz-adv-x="569" 
d="M642 629l5 18h-225l-389 -619h22l195 301h102l-76 -301h216l5 17h-198l71 284h123l4 17h-123l70 283h198zM663 602h-197l-57 -228h122l-18 -73h-122l-57 -228h197l-18 -73h-271l75 301h-56l-193 -301h-82l424 674h271zM402 575l18 30l-19 -76l-45 -183h-101zM302 374h33
l20 83z" />
    <glyph glyph-name="OE" unicode="&#x152;" horiz-adv-x="592" 
d="M330 636c88 0 105 -66 85 -146l-73 -293c-20 -78 -72 -152 -159 -152s-105 68 -86 146l75 299c19 77 72 146 158 146zM669 636l4 17h-217l-17 -69c-6 51 -55 69 -105 69c-97 0 -158 -74 -180 -163l-75 -299c-23 -93 0 -163 99 -163c57 0 108 26 142 80l-20 -80h217l5 17
h-200l71 287h124l5 18h-124l71 286h200zM689 608h-199l-58 -231h124l-18 -73h-124l-57 -231h199l-18 -73h-272l6 28c-30 -19 -64 -28 -100 -28c-119 0 -147 83 -120 191l75 299c25 103 98 191 214 191c32 0 65 -8 89 -23l5 23h272zM323 608c-66 0 -108 -56 -123 -118
l-75 -299c-16 -63 -2 -118 65 -118s108 60 124 124l73 293c16 65 4 118 -64 118z" />
    <glyph glyph-name="Eth" unicode="&#xd0;" horiz-adv-x="375" 
d="M146 0h-144l74 300h-87l17 73h88l76 301h144c122 0 146 -84 119 -192l-73 -290c-27 -109 -91 -192 -214 -192zM93 73h65c74 0 113 55 131 124l69 280c18 69 6 125 -68 125h-65l-58 -229h80l-18 -73h-80zM152 28c103 0 158 70 181 164l73 290c23 92 3 165 -99 165h-116
l-75 -302h-89l-5 -17h89l-75 -300h116zM59 45l70 283h79l5 17h-79l70 284h92c94 0 111 -67 89 -152l-69 -280c-22 -85 -71 -152 -165 -152h-92z" />
    <glyph glyph-name="multiply" unicode="&#xd7;" horiz-adv-x="377" 
d="M177 429l71 -94l-117 -93l12 -12l116 92l70 -93l16 13l-70 93l116 94l-9 13l-117 -94l-70 93zM138 431l69 47l68 -91l116 93l39 -51l-117 -94l71 -93l-65 -52l-70 94l-113 -91l-47 46l120 96z" />
    <glyph glyph-name="Oslash" unicode="&#xd8;" 
d="M409 486l-74 -297c-20 -77 -71 -144 -156 -144c-34 0 -63 14 -80 39l313 481c2 -25 3 -53 -3 -79zM324 629c36 0 67 -13 83 -42c-104 -162 -210 -323 -316 -484c-3 27 -4 57 4 86l74 297c18 74 71 143 155 143zM446 647c-9 -14 -17 -28 -26 -41c-23 25 -54 41 -91 41
c-96 0 -156 -74 -177 -161l-74 -297c-10 -37 -15 -77 -3 -109l-32 -52h19c7 11 16 23 23 34c22 -23 53 -34 89 -34c98 0 156 69 179 161l74 297c8 35 9 70 -1 100l40 61h-20zM432 674h83l-58 -86c8 -32 7 -66 -2 -102l-74 -297c-27 -107 -96 -189 -213 -189
c-30 0 -58 7 -80 21l-12 -21h-77l46 77c-9 35 -5 75 5 112l74 297c25 102 97 188 212 188c32 0 58 -9 81 -25zM318 602c-65 0 -106 -56 -121 -116l-72 -287c86 132 163 249 248 382c-12 15 -32 21 -55 21zM125 199v0zM186 73c66 0 105 54 121 116l67 272l-241 -370
c13 -11 32 -18 53 -18zM374 461v0z" />
    <glyph glyph-name="quotesinglbase" unicode="&#x201a;" horiz-adv-x="99" 
d="M10 -11l47 68h-22l-40 -68h15zM22 -39h-74l74 123h82z" />
    <glyph glyph-name="quotedblbase" unicode="&#x201e;" horiz-adv-x="248" 
d="M144 -11l46 68h-21l-41 -68h16zM12 -11l46 68h-21l-41 -68h16zM23 -39h-73l74 123h81zM155 -39h-71l72 123h82z" />
    <glyph glyph-name="germandbls" unicode="&#xdf;" horiz-adv-x="346" 
d="M46 27l102 409c15 60 52 179 137 179s85 -55 67 -128c-17 -67 -54 -146 -137 -149l-4 -17c80 -6 118 -59 97 -142c-23 -94 -72 -135 -167 -135l-4 -17c105 0 162 48 188 152c18 73 -2 133 -72 146l3 12c63 12 101 100 114 150c20 79 12 145 -78 145
c-93 0 -136 -91 -155 -168l-109 -437h18zM67 0h-72l115 464c23 90 74 195 189 195c112 0 121 -79 98 -172c-11 -44 -41 -114 -90 -151c49 -30 62 -89 45 -157c-31 -123 -105 -179 -247 -179l17 71c94 0 140 33 159 108c17 67 -23 111 -103 117l17 68c82 3 117 68 131 123
c14 58 14 101 -48 101c-60 0 -90 -101 -103 -152z" />
    <glyph glyph-name="Thorn" unicode="&#xde;" horiz-adv-x="348" 
d="M279 501c80 0 87 -67 70 -135l-11 -45c-18 -69 -57 -136 -137 -136s-87 67 -69 136l11 45c17 68 56 135 136 135zM196 167c84 0 138 68 157 144l16 64c19 75 -2 144 -85 144c-53 0 -99 -29 -121 -65l48 193h-17l-155 -619h17l51 203c9 -50 45 -64 89 -64zM189 140
c-30 0 -53 8 -71 23l-40 -163h-73l168 674h73l-38 -152c26 15 53 24 83 24c103 0 128 -81 106 -171l-16 -64c-23 -91 -88 -171 -192 -171zM272 473c-59 0 -89 -52 -102 -107l-11 -45c-14 -56 -11 -109 48 -109s89 53 103 109l11 45c13 55 10 107 -49 107z" />
    <glyph glyph-name="cedilla" unicode="&#xb8;" horiz-adv-x="184" 
d="M73 -48c-4 -13 -21 -27 -34 -33l1 -7c22 5 48 26 54 49c4 17 -3 28 -16 31c-3 1 -7 1 -11 1c-5 0 -10 -1 -15 -2c-3 -1 -5 -2 -8 -3c16 -4 34 -15 29 -36zM46 -48c1 5 -10 9 -20 10l13 53c2 7 7 26 7 26h35l-6 -22c29 0 54 -24 46 -58c-9 -36 -59 -70 -103 -81l-13 51
c16 7 40 18 41 21z" />
    <glyph glyph-name="bracketleft" unicode="[" horiz-adv-x="196" 
d="M201 647l-155 -619h96l5 17h-79l145 584h79l5 18h-96zM180 674h152l-18 -72h-79l-132 -529h79l-18 -73h-152z" />
    <glyph glyph-name="bracketright" unicode="]" horiz-adv-x="196" 
d="M195 647l-5 -18h78l-145 -584h-78l-5 -17h97l155 619h-97zM175 674h151l-168 -674h-151l18 73h78l132 529h-78z" />
    <glyph glyph-name="asciicircum" unicode="^" horiz-adv-x="380" 
d="M168 591l163 87l119 -87l4 18l-119 85c-54 -28 -109 -57 -163 -85zM127 541l21 83l195 103l143 -103l-21 -83l-142 105c-57 -31 -145 -79 -196 -105z" />
    <glyph glyph-name="bullet" unicode="&#x2022;" horiz-adv-x="180" 
d="M143 332c-2 -9 4 -15 12 -15s15 7 17 15c2 7 -2 15 -10 15s-17 -7 -19 -15zM115 332c6 22 31 43 54 43c25 0 35 -23 30 -43c-5 -22 -26 -43 -51 -43c-23 0 -39 19 -33 43z" />
    <glyph glyph-name="degree" unicode="&#xb0;" horiz-adv-x="232" 
d="M200 620c7 29 34 51 62 51c29 0 48 -21 40 -51c-7 -29 -36 -50 -65 -50c-28 0 -44 22 -37 50zM181 619c-9 -36 14 -68 51 -68c38 0 77 30 87 68c10 39 -15 69 -53 69c-37 0 -76 -32 -85 -69zM154 619c13 52 66 97 119 97s88 -42 74 -97c-14 -54 -69 -96 -122 -96
s-84 45 -71 96zM227 620c-3 -13 4 -23 16 -23c14 0 28 10 31 23c4 14 -5 23 -19 23c-12 0 -25 -10 -28 -23z" />
    <glyph glyph-name="plusminus" unicode="&#xb1;" horiz-adv-x="346" 
d="M372 419h-110l29 116h-18l-29 -116h-108l-5 -20h108l-29 -117h18l29 117h110zM406 446l-19 -74h-109l-29 -118h-74l29 118h-108l19 74h108l29 117h74l-29 -117h109zM301 169l4 17h-226l-4 -17h226zM321 141h-281l18 73h281z" />
    <glyph glyph-name="copyright" unicode="&#xa9;" horiz-adv-x="751" 
d="M377 130c72 0 103 54 119 117h-17c-12 -49 -39 -101 -98 -101c-52 0 -62 43 -51 89l51 205c12 46 43 88 95 88c60 0 60 -51 48 -101h17l3 13c15 59 -1 104 -64 104s-101 -44 -116 -104l-51 -205c-15 -61 0 -105 64 -105zM139 340c41 162 202 293 365 293
c162 0 263 -130 222 -293c-41 -164 -205 -295 -368 -295c-164 0 -259 132 -219 295zM122 340c-42 -170 62 -310 232 -310c171 0 345 139 387 310c43 171 -62 309 -233 309s-343 -138 -386 -309zM95 340c47 186 233 337 420 337c186 0 301 -151 254 -337
c-46 -187 -236 -337 -422 -337s-298 152 -252 337zM166 340c-36 -147 51 -267 199 -267s296 119 333 267s-54 265 -201 265s-294 -118 -331 -265zM370 103c-84 0 -104 56 -85 132l51 205c19 75 68 131 151 131s103 -57 84 -131l-10 -41h-71c12 50 17 102 -21 102
c-32 0 -52 -30 -60 -61l-51 -205c-8 -32 -2 -61 30 -61c37 0 59 52 71 101h71c-23 -94 -66 -172 -160 -172z" />
    <glyph glyph-name="registered" unicode="&#xae;" horiz-adv-x="751" 
d="M435 358h-47l42 168h47c50 0 57 -28 45 -75c-11 -44 -33 -93 -87 -93zM537 451c13 54 7 90 -53 90h-66l-95 -381h15l46 183h47c40 0 58 -11 48 -54l-33 -129h16l34 133c6 26 -4 47 -24 58c36 23 56 64 65 100zM139 340c41 162 202 293 365 293c162 0 263 -130 222 -293
c-41 -164 -205 -295 -368 -295c-164 0 -259 132 -219 295zM122 340c-42 -170 62 -310 232 -310c171 0 345 139 387 310c43 171 -62 309 -233 309s-343 -138 -386 -309zM95 340c47 186 233 337 420 337c186 0 301 -151 254 -337c-46 -187 -236 -337 -422 -337
s-298 152 -252 337zM166 340c-36 -147 51 -267 199 -267s296 119 333 267s-54 265 -201 265s-294 -118 -331 -265zM564 451c-8 -31 -25 -68 -50 -96c10 -16 15 -38 9 -62l-41 -161h-70l40 157c5 21 -6 27 -28 27h-19l-46 -184h-70l109 436h93c82 0 91 -46 73 -117zM442 386
c31 0 45 34 53 65c7 29 3 48 -25 48h-19l-28 -113h19z" />
    <glyph glyph-name="braceleft" unicode="{" horiz-adv-x="216" 
d="M316 647c-177 0 -108 -269 -208 -308l-6 -26c77 -46 -110 -286 59 -285l5 18c-143 0 28 228 -43 277l2 6c105 65 35 299 186 299zM350 674l-19 -73c-68 0 -88 -35 -99 -78c-4 -14 -6 -28 -9 -43s-6 -33 -10 -47c-10 -40 -24 -78 -52 -106c15 -27 8 -65 -3 -107l-7 -29
c-2 -10 -6 -20 -8 -30c-12 -47 -12 -88 57 -88l-18 -73c-136 -2 -132 73 -112 154l15 59c9 36 12 67 -15 83l15 60c33 13 46 43 54 77c3 12 5 24 9 37c2 13 7 32 10 44c21 84 58 160 192 160z" />
    <glyph glyph-name="braceright" unicode="}" horiz-adv-x="220" 
d="M192 628c149 0 -32 -229 38 -299l-2 -6c-99 -49 -36 -277 -181 -277l-5 -18c170 -1 101 239 202 285l6 26c-80 39 123 308 -53 308zM157 601l19 73c134 0 134 -76 113 -160c-4 -13 -8 -30 -12 -44c-4 -13 -8 -25 -11 -37c-8 -34 -10 -64 16 -77l-15 -60
c-35 -16 -46 -47 -55 -83l-15 -59c-20 -81 -55 -156 -189 -154l18 73c69 0 87 38 98 82c3 11 6 23 9 34c3 12 5 24 8 36c10 40 23 77 51 103c-13 30 -8 69 3 111c3 14 7 28 10 41c5 14 8 27 11 40c11 44 10 81 -59 81z" />
    <glyph glyph-name="numbersign" unicode="#" horiz-adv-x="562" 
d="M293 416h143l-69 -159h-144zM101 28h17l96 211h144l-94 -211h18l93 211h124l5 18h-118c22 53 46 106 69 159h118l5 18h-114l94 213h-18c-31 -71 -65 -142 -95 -213h-144l95 213h-18l-95 -213h-142l-5 -18h138l-69 -159h-136l-5 -18h131zM62 0l93 211h-126l19 74h142
l44 103h-132l19 74h146l96 212h74l-96 -212h88l38 84c15 34 40 92 56 128h75l-94 -212h108l-19 -74h-123c-6 -11 -9 -22 -14 -34c-15 -33 -17 -34 -30 -69h113l-19 -74h-128c-28 -64 -68 -152 -93 -211h-75l94 211h-88l-96 -211h-72zM308 388l-45 -103h88l45 103h-88z" />
    <glyph glyph-name="exclam" unicode="!" horiz-adv-x="130" 
d="M31 28h18l8 30h-18zM186 647l-126 -506h18l126 506h-18zM165 675h74l-140 -561h-74zM-2 1l20 84h74l-21 -84h-73z" />
    <glyph glyph-name="quotedbl" unicode="&#x22;" horiz-adv-x="201" 
d="M283 647l-18 -71h18l18 71h-18zM170 576h18l18 71h-18zM135 548l32 126h74l-32 -126h-74zM263 674h73l-32 -126h-73z" />
    <glyph glyph-name="scaron" unicode="&#x161;" horiz-adv-x="363" 
d="M165 22c90 0 146 51 168 140c36 146 -186 213 -152 349c17 68 69 125 142 125c97 0 82 -86 65 -155h17c26 104 23 173 -77 173c-80 0 -144 -61 -163 -138c-20 -81 34 -151 84 -196h-1c38 -39 81 -103 67 -159c-19 -76 -69 -122 -146 -122c-99 0 -87 95 -70 163h-19
c-28 -110 -16 -180 85 -180zM158 -6c-125 0 -137 82 -98 236h73c-23 -93 -31 -163 43 -163c58 0 96 36 111 94c13 53 -28 103 -61 138l1 -1c-55 48 -113 126 -90 218c23 93 100 165 197 165c135 0 124 -101 93 -227h-73c19 78 33 154 -38 154c-55 0 -94 -44 -107 -97
c-14 -55 29 -101 71 -149v1c51 -58 101 -118 80 -201c-27 -106 -94 -168 -202 -168zM311 818l23 -84h28l64 84h-14l-55 -65h-7l-24 65h-15zM274 846h75l16 -45l40 45h77l-109 -140h-62z" />
    <glyph glyph-name="Ydieresis" unicode="&#x178;" horiz-adv-x="353" 
d="M437 647l-194 -310l-40 310h-19c12 -113 28 -223 42 -335l-71 -284h19l71 284l211 335h-19zM425 674h78l-232 -367l-76 -307h-74l76 307c-27 205 -40 306 -46 367h78l33 -258c55 86 112 176 163 258zM433 760h-18l-7 -29h18zM288 760h-19l-7 -29h19zM322 788l-21 -84h-73
l21 84h73zM468 788l-21 -84h-74l21 84h74z" />
    <glyph glyph-name="thorn" unicode="&#xfe;" horiz-adv-x="348" 
d="M279 501c80 0 87 -67 70 -135l-11 -45c-18 -69 -57 -136 -137 -136s-87 67 -69 136l11 45c17 68 56 135 136 135zM196 167c84 0 138 68 157 144l16 64c19 75 -2 144 -85 144c-53 0 -99 -29 -121 -65l48 193h-17l-155 -619h17l51 203c9 -50 45 -64 89 -64zM189 140
c-30 0 -53 8 -71 23l-40 -163h-73l168 674h73l-38 -152c26 15 53 24 83 24c103 0 128 -81 106 -171l-16 -64c-23 -91 -88 -171 -192 -171zM272 473c-59 0 -89 -52 -102 -107l-11 -45c-14 -56 -11 -109 48 -109s89 53 103 109l11 45c13 55 10 107 -49 107z" />
    <glyph glyph-name="Scaron" unicode="&#x160;" horiz-adv-x="363" 
d="M165 22c90 0 146 51 168 140c36 146 -186 213 -152 349c17 68 69 125 142 125c97 0 82 -86 65 -155h17c26 104 23 173 -77 173c-80 0 -144 -61 -163 -138c-20 -81 34 -151 84 -196h-1c38 -39 81 -103 67 -159c-19 -76 -69 -122 -146 -122c-99 0 -87 95 -70 163h-19
c-28 -110 -16 -180 85 -180zM158 -6c-125 0 -137 82 -98 236h73c-23 -93 -31 -163 43 -163c58 0 96 36 111 94c13 53 -28 103 -61 138l1 -1c-55 48 -113 126 -90 218c23 93 100 165 197 165c135 0 124 -101 93 -227h-73c19 78 33 154 -38 154c-55 0 -94 -44 -107 -97
c-14 -55 29 -101 71 -149v1c51 -58 101 -118 80 -201c-27 -106 -94 -168 -202 -168zM308 819l23 -84h28l64 84h-14l-55 -65h-7l-24 65h-15zM271 847h75l16 -45l40 45h77l-109 -140h-62z" />
    <glyph glyph-name="periodcentered" unicode="&#xb7;" horiz-adv-x="155" 
d="M143 332c-2 -9 4 -15 12 -15s15 7 17 15c2 7 -2 15 -10 15s-17 -7 -19 -15zM115 332c6 22 31 43 54 43c25 0 35 -23 30 -43c-5 -22 -26 -43 -51 -43c-23 0 -39 19 -33 43z" />
    <glyph glyph-name="ae" unicode="&#xe6;" horiz-adv-x="569" 
d="M642 629l5 18h-225l-389 -619h22l195 301h102l-76 -301h216l5 17h-198l71 284h123l4 17h-123l70 283h198zM663 602h-197l-57 -228h122l-18 -73h-122l-57 -228h197l-18 -73h-271l75 301h-56l-193 -301h-82l424 674h271zM402 575l18 30l-19 -76l-45 -183h-101zM302 374h33
l20 83z" />
    <glyph glyph-name="Agrave" unicode="&#xc0;" horiz-adv-x="435" 
d="M342 601l-7 -363h-166zM69 28l91 192h174l-5 -192h18l14 619h-14l-297 -619h19zM85 0h-75l322 674h58l-15 -674h-75l6 193h-128zM312 479l-101 -214h96zM417 733l-28 76h-21l31 -76h18zM459 706h-81l-55 131h88z" />
    <glyph glyph-name="agrave" unicode="&#xe0;" horiz-adv-x="435" 
d="M342 601l-7 -363h-166zM69 28l91 192h174l-5 -192h18l14 619h-14l-297 -619h19zM85 0h-75l322 674h58l-15 -674h-75l6 193h-128zM312 479l-101 -214h96zM417 733l-28 76h-21l31 -76h18zM459 706h-81l-55 131h88z" />
    <glyph glyph-name="Aacute" unicode="&#xc1;" horiz-adv-x="435" 
d="M342 601l-7 -363h-166zM69 28l91 192h174l-5 -192h18l14 619h-14l-297 -619h19zM85 0h-75l322 674h58l-15 -674h-75l6 193h-128zM312 479l-101 -214h96zM355 734l67 75h-19l-61 -75h13zM362 707h-74l106 130h85z" />
    <glyph glyph-name="aacute" unicode="&#xe1;" horiz-adv-x="435" 
d="M342 601l-7 -363h-166zM69 28l91 192h174l-5 -192h18l14 619h-14l-297 -619h19zM85 0h-75l322 674h58l-15 -674h-75l6 193h-128zM312 479l-101 -214h96zM355 734l67 75h-19l-61 -75h13zM362 707h-74l106 130h85z" />
    <glyph glyph-name="Acircumflex" unicode="&#xc2;" horiz-adv-x="435" 
d="M342 601l-7 -363h-166zM69 28l91 192h174l-5 -192h18l14 619h-14l-297 -619h19zM85 0h-75l322 674h58l-15 -674h-75l6 193h-128zM312 479l-101 -214h96zM330 728l55 65h6l26 -65h13l-22 84h-29l-64 -84h15zM338 700h-74l105 140h63l39 -140h-74l-20 44z" />
    <glyph glyph-name="acircumflex" unicode="&#xe2;" horiz-adv-x="435" 
d="M342 601l-7 -363h-166zM69 28l91 192h174l-5 -192h18l14 619h-14l-297 -619h19zM85 0h-75l322 674h58l-15 -674h-75l6 193h-128zM312 479l-101 -214h96zM330 728l55 65h6l26 -65h13l-22 84h-29l-64 -84h15zM338 700h-74l105 140h63l39 -140h-74l-20 44z" />
    <glyph glyph-name="Atilde" unicode="&#xc3;" horiz-adv-x="435" 
d="M342 601l-7 -363h-166zM69 28l91 192h174l-5 -192h18l14 619h-14l-297 -619h19zM85 0h-75l322 674h58l-15 -674h-75l6 193h-128zM312 479l-101 -214h96zM489 773c-10 -3 -23 -9 -32 -9c-43 0 -69 40 -118 40c-24 0 -50 -15 -71 -28l11 -15c17 14 37 23 57 23
c43 0 67 -39 114 -39c16 0 34 6 51 12zM504 808l40 -63c-37 -13 -80 -28 -101 -28c-31 0 -51 11 -71 23c-15 8 -28 17 -43 17c-12 0 -34 -14 -60 -34l-42 57c40 24 86 51 118 51c31 0 53 -12 75 -23h-1c16 -8 30 -16 45 -16c4 0 14 3 23 7z" />
    <glyph glyph-name="atilde" unicode="&#xe3;" horiz-adv-x="435" 
d="M342 601l-7 -363h-166zM69 28l91 192h174l-5 -192h18l14 619h-14l-297 -619h19zM85 0h-75l322 674h58l-15 -674h-75l6 193h-128zM312 479l-101 -214h96zM489 773c-10 -3 -23 -9 -32 -9c-43 0 -69 40 -118 40c-24 0 -50 -15 -71 -28l11 -15c17 14 37 23 57 23
c43 0 67 -39 114 -39c16 0 34 6 51 12zM504 808l40 -63c-37 -13 -80 -28 -101 -28c-31 0 -51 11 -71 23c-15 8 -28 17 -43 17c-12 0 -34 -14 -60 -34l-42 57c40 24 86 51 118 51c31 0 53 -12 75 -23h-1c16 -8 30 -16 45 -16c4 0 14 3 23 7z" />
    <glyph glyph-name="Adieresis" unicode="&#xc4;" horiz-adv-x="435" 
d="M342 601l-7 -363h-166zM69 28l91 192h174l-5 -192h18l14 619h-14l-297 -619h19zM85 0h-75l322 674h58l-15 -674h-75l6 193h-128zM312 479l-101 -214h96zM466 774h-18l-7 -29h18zM321 774h-19l-7 -29h19zM355 802l-21 -84h-73l21 84h73zM501 802l-21 -84h-74l21 84h74z
" />
    <glyph glyph-name="adieresis" unicode="&#xe4;" horiz-adv-x="435" 
d="M342 601l-7 -363h-166zM69 28l91 192h174l-5 -192h18l14 619h-14l-297 -619h19zM85 0h-75l322 674h58l-15 -674h-75l6 193h-128zM312 479l-101 -214h96zM466 774h-18l-7 -29h18zM321 774h-19l-7 -29h19zM355 802l-21 -84h-73l21 84h73zM501 802l-21 -84h-74l21 84h74z
" />
    <glyph glyph-name="Aring" unicode="&#xc5;" horiz-adv-x="435" 
d="M342 601l-7 -363h-166zM69 28l91 192h174l-5 -192h18l14 619h-14l-297 -619h19zM85 0h-75l322 674h58l-15 -674h-75l6 193h-128zM312 479l-101 -214h96zM334 750c6 27 29 45 56 45c25 0 41 -20 34 -46c-6 -26 -32 -44 -57 -44c-28 0 -40 18 -33 45zM314 749
c-8 -35 14 -62 49 -62s71 27 79 62c9 35 -12 65 -47 65s-72 -30 -81 -65zM287 749c13 50 63 92 114 92c49 0 82 -42 69 -92c-12 -50 -65 -90 -114 -90c-51 0 -81 40 -69 90zM361 750c-3 -11 2 -17 13 -17c10 0 20 6 22 16c3 10 -3 19 -13 19s-20 -8 -22 -18z" />
    <glyph glyph-name="aring" unicode="&#xe5;" horiz-adv-x="435" 
d="M342 601l-7 -363h-166zM69 28l91 192h174l-5 -192h18l14 619h-14l-297 -619h19zM85 0h-75l322 674h58l-15 -674h-75l6 193h-128zM312 479l-101 -214h96zM334 750c6 27 29 45 56 45c25 0 41 -20 34 -46c-6 -26 -32 -44 -57 -44c-28 0 -40 18 -33 45zM314 749
c-8 -35 14 -62 49 -62s71 27 79 62c9 35 -12 65 -47 65s-72 -30 -81 -65zM287 749c13 50 63 92 114 92c49 0 82 -42 69 -92c-12 -50 -65 -90 -114 -90c-51 0 -81 40 -69 90zM361 750c-3 -11 2 -17 13 -17c10 0 20 6 22 16c3 10 -3 19 -13 19s-20 -8 -22 -18z" />
    <glyph glyph-name="Egrave" unicode="&#xc8;" horiz-adv-x="323" 
d="M400 629l5 18h-215l-154 -619h214l5 17h-197l70 282h132l4 17h-132l71 285h197zM422 602h-198l-58 -230h132l-18 -73h-132l-56 -226h198l-18 -73h-269l167 674h270zM352 736l-28 76h-21l31 -76h18zM394 709h-81l-55 131h88z" />
    <glyph glyph-name="egrave" unicode="&#xe8;" horiz-adv-x="323" 
d="M400 629l5 18h-215l-154 -619h214l5 17h-197l70 282h132l4 17h-132l71 285h197zM422 602h-198l-58 -230h132l-18 -73h-132l-56 -226h198l-18 -73h-269l167 674h270zM352 736l-28 76h-21l31 -76h18zM394 709h-81l-55 131h88z" />
    <glyph glyph-name="Eacute" unicode="&#xc9;" horiz-adv-x="323" 
d="M400 629l5 18h-215l-154 -619h214l5 17h-197l70 282h132l4 17h-132l71 285h197zM422 602h-198l-58 -230h132l-18 -73h-132l-56 -226h198l-18 -73h-269l167 674h270zM311 744l67 75h-19l-61 -75h13zM318 717h-74l106 130h85z" />
    <glyph glyph-name="eacute" unicode="&#xe9;" horiz-adv-x="323" 
d="M400 629l5 18h-215l-154 -619h214l5 17h-197l70 282h132l4 17h-132l71 285h197zM422 602h-198l-58 -230h132l-18 -73h-132l-56 -226h198l-18 -73h-269l167 674h270zM311 744l67 75h-19l-61 -75h13zM318 717h-74l106 130h85z" />
    <glyph glyph-name="Ecircumflex" unicode="&#xca;" horiz-adv-x="323" 
d="M400 629l5 18h-215l-154 -619h214l5 17h-197l70 282h132l4 17h-132l71 285h197zM422 602h-198l-58 -230h132l-18 -73h-132l-56 -226h198l-18 -73h-269l167 674h270zM281 728l55 65h6l26 -65h13l-22 84h-29l-64 -84h15zM289 700h-74l105 140h63l39 -140h-74l-20 44z" />
    <glyph glyph-name="Edieresis" unicode="&#xcb;" horiz-adv-x="323" 
d="M400 629l5 18h-215l-154 -619h214l5 17h-197l70 282h132l4 17h-132l71 285h197zM422 602h-198l-58 -230h132l-18 -73h-132l-56 -226h198l-18 -73h-269l167 674h270zM414 777h-18l-7 -29h18zM269 777h-19l-7 -29h19zM303 805l-21 -84h-73l21 84h73zM449 805l-21 -84h-74
l21 84h74z" />
    <glyph glyph-name="edieresis" unicode="&#xeb;" horiz-adv-x="323" 
d="M400 629l5 18h-215l-154 -619h214l5 17h-197l70 282h132l4 17h-132l71 285h197zM422 602h-198l-58 -230h132l-18 -73h-132l-56 -226h198l-18 -73h-269l167 674h270zM414 777h-18l-7 -29h18zM269 777h-19l-7 -29h19zM303 805l-21 -84h-73l21 84h73zM449 805l-21 -84h-74
l21 84h74z" />
    <glyph glyph-name="Igrave" unicode="&#xcc;" horiz-adv-x="144" 
d="M59 28l155 619h-19l-155 -619h19zM80 0h-73l168 674h73zM255 740l-28 76h-21l31 -76h18zM297 713h-81l-55 131h88z" />
    <glyph glyph-name="igrave" unicode="&#xec;" horiz-adv-x="144" 
d="M59 28l155 619h-19l-155 -619h19zM80 0h-73l168 674h73zM255 740l-28 76h-21l31 -76h18zM297 713h-81l-55 131h88z" />
    <glyph glyph-name="Iacute" unicode="&#xcd;" horiz-adv-x="144" 
d="M59 28l155 619h-19l-155 -619h19zM80 0h-73l168 674h73zM209 742l67 75h-19l-61 -75h13zM216 715h-74l106 130h85z" />
    <glyph glyph-name="iacute" unicode="&#xed;" horiz-adv-x="144" 
d="M59 28l155 619h-19l-155 -619h19zM80 0h-73l168 674h73zM209 742l67 75h-19l-61 -75h13zM216 715h-74l106 130h85z" />
    <glyph glyph-name="Icircumflex" unicode="&#xce;" horiz-adv-x="144" 
d="M59 28l155 619h-19l-155 -619h19zM80 0h-73l168 674h73zM182 728l55 65h6l26 -65h13l-22 84h-29l-64 -84h15zM190 700h-74l105 140h63l39 -140h-74l-20 44z" />
    <glyph glyph-name="icircumflex" unicode="&#xee;" horiz-adv-x="144" 
d="M59 28l155 619h-19l-155 -619h19zM80 0h-73l168 674h73zM182 728l55 65h6l26 -65h13l-22 84h-29l-64 -84h15zM190 700h-74l105 140h63l39 -140h-74l-20 44z" />
    <glyph glyph-name="Idieresis" unicode="&#xcf;" horiz-adv-x="144" 
d="M59 28l155 619h-19l-155 -619h19zM80 0h-73l168 674h73zM319 777h-18l-7 -29h18zM174 777h-19l-7 -29h19zM208 805l-21 -84h-73l21 84h73zM354 805l-21 -84h-74l21 84h74z" />
    <glyph glyph-name="idieresis" unicode="&#xef;" horiz-adv-x="144" 
d="M59 28l155 619h-19l-155 -619h19zM80 0h-73l168 674h73zM319 777h-18l-7 -29h18zM174 777h-19l-7 -29h19zM208 805l-21 -84h-73l21 84h73zM354 805l-21 -84h-74l21 84h74z" />
    <glyph glyph-name="Ntilde" unicode="&#xd1;" horiz-adv-x="385" 
d="M196 590c29 -188 55 -375 84 -562h15l155 619h-17l-140 -562l-86 562h-16l-155 -619h19zM187 446l-111 -446h-73l168 674h61l68 -446l112 446h73l-168 -674h-61c-16 94 -32 205 -69 446zM444 766c-10 -3 -23 -9 -32 -9c-43 0 -69 40 -118 40c-24 0 -50 -15 -71 -28
l11 -15c17 14 37 23 57 23c43 0 67 -39 114 -39c16 0 34 6 51 12zM459 801l40 -63c-37 -13 -80 -28 -101 -28c-31 0 -51 11 -71 23c-15 8 -28 17 -43 17c-12 0 -34 -14 -60 -34l-42 57c40 24 86 51 118 51c31 0 53 -12 75 -23h-1c16 -8 30 -16 45 -16c4 0 14 3 23 7z" />
    <glyph glyph-name="ntilde" unicode="&#xf1;" horiz-adv-x="385" 
d="M196 590c29 -188 55 -375 84 -562h15l155 619h-17l-140 -562l-86 562h-16l-155 -619h19zM187 446l-111 -446h-73l168 674h61l68 -446l112 446h73l-168 -674h-61c-16 94 -32 205 -69 446zM444 766c-10 -3 -23 -9 -32 -9c-43 0 -69 40 -118 40c-24 0 -50 -15 -71 -28
l11 -15c17 14 37 23 57 23c43 0 67 -39 114 -39c16 0 34 6 51 12zM459 801l40 -63c-37 -13 -80 -28 -101 -28c-31 0 -51 11 -71 23c-15 8 -28 17 -43 17c-12 0 -34 -14 -60 -34l-42 57c40 24 86 51 118 51c31 0 53 -12 75 -23h-1c16 -8 30 -16 45 -16c4 0 14 3 23 7z" />
    <glyph glyph-name="Ograve" unicode="&#xd2;" 
d="M327 635c91 0 100 -74 81 -153l-74 -294c-20 -80 -66 -148 -156 -148s-102 72 -82 151l73 292c19 76 70 152 158 152zM174 21c99 0 154 70 177 162l77 309c22 87 0 163 -96 163c-95 0 -157 -76 -179 -163l-77 -309c-22 -90 1 -162 98 -162zM167 -6
c-116 0 -145 83 -119 189l77 309c26 102 99 189 213 189c115 0 144 -87 118 -189l-77 -309c-27 -108 -94 -189 -212 -189zM320 607c-68 0 -108 -61 -124 -124l-73 -292c-16 -64 -7 -124 62 -124c70 0 105 56 121 121l74 294c16 64 10 125 -60 125zM374 733l-28 76h-21
l31 -76h18zM416 706h-81l-55 131h88z" />
    <glyph glyph-name="ograve" unicode="&#xf2;" 
d="M327 635c91 0 100 -74 81 -153l-74 -294c-20 -80 -66 -148 -156 -148s-102 72 -82 151l73 292c19 76 70 152 158 152zM174 21c99 0 154 70 177 162l77 309c22 87 0 163 -96 163c-95 0 -157 -76 -179 -163l-77 -309c-22 -90 1 -162 98 -162zM167 -6
c-116 0 -145 83 -119 189l77 309c26 102 99 189 213 189c115 0 144 -87 118 -189l-77 -309c-27 -108 -94 -189 -212 -189zM320 607c-68 0 -108 -61 -124 -124l-73 -292c-16 -64 -7 -124 62 -124c70 0 105 56 121 121l74 294c16 64 10 125 -60 125zM374 733l-28 76h-21
l31 -76h18zM416 706h-81l-55 131h88z" />
    <glyph glyph-name="Ugrave" unicode="&#xd9;" horiz-adv-x="387" 
d="M170 22c91 0 154 61 176 149l119 476h-18l-118 -471c-19 -78 -72 -137 -155 -137c-82 0 -105 59 -86 137l118 471h-18l-118 -476c-22 -88 9 -149 100 -149zM163 -6c-109 0 -147 72 -121 177l125 504h74l-125 -499c-15 -62 2 -109 65 -109c64 0 105 47 120 109l125 499h74
l-126 -504c-26 -105 -101 -177 -211 -177zM374 733l-28 76h-21l31 -76h18zM416 706h-81l-55 131h88z" />
    <glyph glyph-name="ugrave" unicode="&#xf9;" horiz-adv-x="387" 
d="M170 22c91 0 154 61 176 149l119 476h-18l-118 -471c-19 -78 -72 -137 -155 -137c-82 0 -105 59 -86 137l118 471h-18l-118 -476c-22 -88 9 -149 100 -149zM163 -6c-109 0 -147 72 -121 177l125 504h74l-125 -499c-15 -62 2 -109 65 -109c64 0 105 47 120 109l125 499h74
l-126 -504c-26 -105 -101 -177 -211 -177zM374 733l-28 76h-21l31 -76h18zM416 706h-81l-55 131h88z" />
    <glyph glyph-name="Oacute" unicode="&#xd3;" 
d="M327 635c91 0 100 -74 81 -153l-74 -294c-20 -80 -66 -148 -156 -148s-102 72 -82 151l73 292c19 76 70 152 158 152zM174 21c99 0 154 70 177 162l77 309c22 87 0 163 -96 163c-95 0 -157 -76 -179 -163l-77 -309c-22 -90 1 -162 98 -162zM167 -6
c-116 0 -145 83 -119 189l77 309c26 102 99 189 213 189c115 0 144 -87 118 -189l-77 -309c-27 -108 -94 -189 -212 -189zM320 607c-68 0 -108 -61 -124 -124l-73 -292c-16 -64 -7 -124 62 -124c70 0 105 56 121 121l74 294c16 64 10 125 -60 125zM355 734l67 75h-19
l-61 -75h13zM362 707h-74l106 130h85z" />
    <glyph glyph-name="oacute" unicode="&#xf3;" 
d="M327 635c91 0 100 -74 81 -153l-74 -294c-20 -80 -66 -148 -156 -148s-102 72 -82 151l73 292c19 76 70 152 158 152zM174 21c99 0 154 70 177 162l77 309c22 87 0 163 -96 163c-95 0 -157 -76 -179 -163l-77 -309c-22 -90 1 -162 98 -162zM167 -6
c-116 0 -145 83 -119 189l77 309c26 102 99 189 213 189c115 0 144 -87 118 -189l-77 -309c-27 -108 -94 -189 -212 -189zM320 607c-68 0 -108 -61 -124 -124l-73 -292c-16 -64 -7 -124 62 -124c70 0 105 56 121 121l74 294c16 64 10 125 -60 125zM355 734l67 75h-19
l-61 -75h13zM362 707h-74l106 130h85z" />
    <glyph glyph-name="ecircumflex" unicode="&#xea;" horiz-adv-x="323" 
d="M400 629l5 18h-215l-154 -619h214l5 17h-197l70 282h132l4 17h-132l71 285h197zM422 602h-198l-58 -230h132l-18 -73h-132l-56 -226h198l-18 -73h-269l167 674h270zM281 728l55 65h6l26 -65h13l-22 84h-29l-64 -84h15zM289 700h-74l105 140h63l39 -140h-74l-20 44z" />
    <glyph glyph-name="Ocircumflex" unicode="&#xd4;" 
d="M327 635c91 0 100 -74 81 -153l-74 -294c-20 -80 -66 -148 -156 -148s-102 72 -82 151l73 292c19 76 70 152 158 152zM174 21c99 0 154 70 177 162l77 309c22 87 0 163 -96 163c-95 0 -157 -76 -179 -163l-77 -309c-22 -90 1 -162 98 -162zM167 -6
c-116 0 -145 83 -119 189l77 309c26 102 99 189 213 189c115 0 144 -87 118 -189l-77 -309c-27 -108 -94 -189 -212 -189zM320 607c-68 0 -108 -61 -124 -124l-73 -292c-16 -64 -7 -124 62 -124c70 0 105 56 121 121l74 294c16 64 10 125 -60 125zM302 728l55 65h6l26 -65
h13l-22 84h-29l-64 -84h15zM310 700h-74l105 140h63l39 -140h-74l-20 44z" />
    <glyph glyph-name="ocircumflex" unicode="&#xf4;" 
d="M327 635c91 0 100 -74 81 -153l-74 -294c-20 -80 -66 -148 -156 -148s-102 72 -82 151l73 292c19 76 70 152 158 152zM174 21c99 0 154 70 177 162l77 309c22 87 0 163 -96 163c-95 0 -157 -76 -179 -163l-77 -309c-22 -90 1 -162 98 -162zM167 -6
c-116 0 -145 83 -119 189l77 309c26 102 99 189 213 189c115 0 144 -87 118 -189l-77 -309c-27 -108 -94 -189 -212 -189zM320 607c-68 0 -108 -61 -124 -124l-73 -292c-16 -64 -7 -124 62 -124c70 0 105 56 121 121l74 294c16 64 10 125 -60 125zM302 728l55 65h6l26 -65
h13l-22 84h-29l-64 -84h15zM310 700h-74l105 140h63l39 -140h-74l-20 44z" />
    <glyph glyph-name="Otilde" unicode="&#xd5;" 
d="M327 635c91 0 100 -74 81 -153l-74 -294c-20 -80 -66 -148 -156 -148s-102 72 -82 151l73 292c19 76 70 152 158 152zM174 21c99 0 154 70 177 162l77 309c22 87 0 163 -96 163c-95 0 -157 -76 -179 -163l-77 -309c-22 -90 1 -162 98 -162zM167 -6
c-116 0 -145 83 -119 189l77 309c26 102 99 189 213 189c115 0 144 -87 118 -189l-77 -309c-27 -108 -94 -189 -212 -189zM320 607c-68 0 -108 -61 -124 -124l-73 -292c-16 -64 -7 -124 62 -124c70 0 105 56 121 121l74 294c16 64 10 125 -60 125zM454 766
c-10 -3 -23 -9 -32 -9c-43 0 -69 40 -118 40c-24 0 -50 -15 -71 -28l11 -15c17 14 37 23 57 23c43 0 67 -39 114 -39c16 0 34 6 51 12zM469 801l40 -63c-37 -13 -80 -28 -101 -28c-31 0 -51 11 -71 23c-15 8 -28 17 -43 17c-12 0 -34 -14 -60 -34l-42 57c40 24 86 51 118 51
c31 0 53 -12 75 -23h-1c16 -8 30 -16 45 -16c4 0 14 3 23 7z" />
    <glyph glyph-name="otilde" unicode="&#xf5;" 
d="M327 635c91 0 100 -74 81 -153l-74 -294c-20 -80 -66 -148 -156 -148s-102 72 -82 151l73 292c19 76 70 152 158 152zM174 21c99 0 154 70 177 162l77 309c22 87 0 163 -96 163c-95 0 -157 -76 -179 -163l-77 -309c-22 -90 1 -162 98 -162zM167 -6
c-116 0 -145 83 -119 189l77 309c26 102 99 189 213 189c115 0 144 -87 118 -189l-77 -309c-27 -108 -94 -189 -212 -189zM320 607c-68 0 -108 -61 -124 -124l-73 -292c-16 -64 -7 -124 62 -124c70 0 105 56 121 121l74 294c16 64 10 125 -60 125zM454 766
c-10 -3 -23 -9 -32 -9c-43 0 -69 40 -118 40c-24 0 -50 -15 -71 -28l11 -15c17 14 37 23 57 23c43 0 67 -39 114 -39c16 0 34 6 51 12zM469 801l40 -63c-37 -13 -80 -28 -101 -28c-31 0 -51 11 -71 23c-15 8 -28 17 -43 17c-12 0 -34 -14 -60 -34l-42 57c40 24 86 51 118 51
c31 0 53 -12 75 -23h-1c16 -8 30 -16 45 -16c4 0 14 3 23 7z" />
    <glyph glyph-name="Odieresis" unicode="&#xd6;" 
d="M327 635c91 0 100 -74 81 -153l-74 -294c-20 -80 -66 -148 -156 -148s-102 72 -82 151l73 292c19 76 70 152 158 152zM174 21c99 0 154 70 177 162l77 309c22 87 0 163 -96 163c-95 0 -157 -76 -179 -163l-77 -309c-22 -90 1 -162 98 -162zM167 -6
c-116 0 -145 83 -119 189l77 309c26 102 99 189 213 189c115 0 144 -87 118 -189l-77 -309c-27 -108 -94 -189 -212 -189zM320 607c-68 0 -108 -61 -124 -124l-73 -292c-16 -64 -7 -124 62 -124c70 0 105 56 121 121l74 294c16 64 10 125 -60 125zM441 774h-18l-7 -29h18z
M296 774h-19l-7 -29h19zM330 802l-21 -84h-73l21 84h73zM476 802l-21 -84h-74l21 84h74z" />
    <glyph glyph-name="odieresis" unicode="&#xf6;" 
d="M327 635c91 0 100 -74 81 -153l-74 -294c-20 -80 -66 -148 -156 -148s-102 72 -82 151l73 292c19 76 70 152 158 152zM174 21c99 0 154 70 177 162l77 309c22 87 0 163 -96 163c-95 0 -157 -76 -179 -163l-77 -309c-22 -90 1 -162 98 -162zM167 -6
c-116 0 -145 83 -119 189l77 309c26 102 99 189 213 189c115 0 144 -87 118 -189l-77 -309c-27 -108 -94 -189 -212 -189zM320 607c-68 0 -108 -61 -124 -124l-73 -292c-16 -64 -7 -124 62 -124c70 0 105 56 121 121l74 294c16 64 10 125 -60 125zM441 774h-18l-7 -29h18z
M296 774h-19l-7 -29h19zM330 802l-21 -84h-73l21 84h73zM476 802l-21 -84h-74l21 84h74z" />
    <glyph glyph-name="Udieresis" unicode="&#xdc;" horiz-adv-x="387" 
d="M170 22c91 0 154 61 176 149l119 476h-18l-118 -471c-19 -78 -72 -137 -155 -137c-82 0 -105 59 -86 137l118 471h-18l-118 -476c-22 -88 9 -149 100 -149zM163 -6c-109 0 -147 72 -121 177l125 504h74l-125 -499c-15 -62 2 -109 65 -109c64 0 105 47 120 109l125 499h74
l-126 -504c-26 -105 -101 -177 -211 -177zM442 774h-18l-7 -29h18zM297 774h-19l-7 -29h19zM331 802l-21 -84h-73l21 84h73zM477 802l-21 -84h-74l21 84h74z" />
    <glyph glyph-name="udieresis" unicode="&#xfc;" horiz-adv-x="387" 
d="M170 22c91 0 154 61 176 149l119 476h-18l-118 -471c-19 -78 -72 -137 -155 -137c-82 0 -105 59 -86 137l118 471h-18l-118 -476c-22 -88 9 -149 100 -149zM163 -6c-109 0 -147 72 -121 177l125 504h74l-125 -499c-15 -62 2 -109 65 -109c64 0 105 47 120 109l125 499h74
l-126 -504c-26 -105 -101 -177 -211 -177zM442 774h-18l-7 -29h18zM297 774h-19l-7 -29h19zM331 802l-21 -84h-73l21 84h73zM477 802l-21 -84h-74l21 84h74z" />
    <glyph glyph-name="Uacute" unicode="&#xda;" horiz-adv-x="387" 
d="M170 22c91 0 154 61 176 149l119 476h-18l-118 -471c-19 -78 -72 -137 -155 -137c-82 0 -105 59 -86 137l118 471h-18l-118 -476c-22 -88 9 -149 100 -149zM163 -6c-109 0 -147 72 -121 177l125 504h74l-125 -499c-15 -62 2 -109 65 -109c64 0 105 47 120 109l125 499h74
l-126 -504c-26 -105 -101 -177 -211 -177zM345 734l67 75h-19l-61 -75h13zM352 707h-74l106 130h85z" />
    <glyph glyph-name="uacute" unicode="&#xfa;" horiz-adv-x="387" 
d="M170 22c91 0 154 61 176 149l119 476h-18l-118 -471c-19 -78 -72 -137 -155 -137c-82 0 -105 59 -86 137l118 471h-18l-118 -476c-22 -88 9 -149 100 -149zM163 -6c-109 0 -147 72 -121 177l125 504h74l-125 -499c-15 -62 2 -109 65 -109c64 0 105 47 120 109l125 499h74
l-126 -504c-26 -105 -101 -177 -211 -177zM345 734l67 75h-19l-61 -75h13zM352 707h-74l106 130h85z" />
    <glyph glyph-name="Ucircumflex" unicode="&#xdb;" horiz-adv-x="387" 
d="M170 22c91 0 154 61 176 149l119 476h-18l-118 -471c-19 -78 -72 -137 -155 -137c-82 0 -105 59 -86 137l118 471h-18l-118 -476c-22 -88 9 -149 100 -149zM163 -6c-109 0 -147 72 -121 177l125 504h74l-125 -499c-15 -62 2 -109 65 -109c64 0 105 47 120 109l125 499h74
l-126 -504c-26 -105 -101 -177 -211 -177zM301 728l55 65h6l26 -65h13l-22 84h-29l-64 -84h15zM309 700h-74l105 140h63l39 -140h-74l-20 44z" />
    <glyph glyph-name="ucircumflex" unicode="&#xfb;" horiz-adv-x="387" 
d="M170 22c91 0 154 61 176 149l119 476h-18l-118 -471c-19 -78 -72 -137 -155 -137c-82 0 -105 59 -86 137l118 471h-18l-118 -476c-22 -88 9 -149 100 -149zM163 -6c-109 0 -147 72 -121 177l125 504h74l-125 -499c-15 -62 2 -109 65 -109c64 0 105 47 120 109l125 499h74
l-126 -504c-26 -105 -101 -177 -211 -177zM301 728l55 65h6l26 -65h13l-22 84h-29l-64 -84h15zM309 700h-74l105 140h63l39 -140h-74l-20 44z" />
    <glyph glyph-name="Yacute" unicode="&#xdd;" horiz-adv-x="353" 
d="M437 647l-194 -310l-40 310h-19c12 -113 28 -223 42 -335l-71 -284h19l71 284l211 335h-19zM425 674h78l-232 -367l-76 -307h-74l76 307c-27 205 -40 306 -46 367h78l33 -258c55 86 112 176 163 258zM335 734l67 75h-19l-61 -75h13zM342 707h-74l106 130h85z" />
    <glyph glyph-name="yacute" unicode="&#xfd;" horiz-adv-x="353" 
d="M437 647l-194 -310l-40 310h-19c12 -113 28 -223 42 -335l-71 -284h19l71 284l211 335h-19zM425 674h78l-232 -367l-76 -307h-74l76 307c-27 205 -40 306 -46 367h78l33 -258c55 86 112 176 163 258zM335 734l67 75h-19l-61 -75h13zM342 707h-74l106 130h85z" />
    <glyph glyph-name="ydieresis" unicode="&#xff;" horiz-adv-x="353" 
d="M437 647l-194 -310l-40 310h-19c12 -113 28 -223 42 -335l-71 -284h19l71 284l211 335h-19zM425 674h78l-232 -367l-76 -307h-74l76 307c-27 205 -40 306 -46 367h78l33 -258c55 86 112 176 163 258zM436 777h-18l-7 -29h18zM291 777h-19l-7 -29h19zM325 805l-21 -84h-73
l21 84h73zM471 805l-21 -84h-74l21 84h74z" />
    <glyph glyph-name="Ccedilla" unicode="&#xc7;" horiz-adv-x="381" 
d="M183 12l3 9c102 8 143 82 168 182h-18c-20 -82 -59 -164 -160 -164c-85 0 -103 68 -84 144l77 309c19 76 72 144 157 144c101 0 98 -81 77 -164h18c28 111 7 181 -91 181c-97 0 -156 -70 -179 -161l-77 -309c-23 -91 6 -162 92 -162v0l-3 -9c-12 -51 -11 -48 -12 -52
c17 0 36 -1 34 -17s-31 -32 -43 -38l5 -18c23 9 57 33 63 58c4 15 -7 31 -35 32zM154 -65c2 5 -18 6 -28 7l14 54c-96 10 -119 88 -94 187l77 309c27 107 98 189 214 189c134 0 144 -82 105 -237h-74c21 83 37 164 -49 164c-66 0 -106 -54 -122 -116l-77 -309
c-15 -62 -3 -117 63 -117c79 0 109 71 132 165h74c-29 -116 -68 -219 -189 -234c21 -7 38 -25 31 -53c-9 -36 -58 -68 -100 -83l-13 51c-1 0 33 11 36 23z" />
    <glyph glyph-name="ccedilla" unicode="&#xe7;" horiz-adv-x="381" 
d="M183 12l3 9c102 8 143 82 168 182h-18c-20 -82 -59 -164 -160 -164c-85 0 -103 68 -84 144l77 309c19 76 72 144 157 144c101 0 98 -81 77 -164h18c28 111 7 181 -91 181c-97 0 -156 -70 -179 -161l-77 -309c-23 -91 6 -162 92 -162v0l-3 -9c-12 -51 -11 -48 -12 -52
c17 0 36 -1 34 -17s-31 -32 -43 -38l5 -18c23 9 57 33 63 58c4 15 -7 31 -35 32zM154 -65c2 5 -18 6 -28 7l14 54c-96 10 -119 88 -94 187l77 309c27 107 98 189 214 189c134 0 144 -82 105 -237h-74c21 83 37 164 -49 164c-66 0 -106 -54 -122 -116l-77 -309
c-15 -62 -3 -117 63 -117c79 0 109 71 132 165h74c-29 -116 -68 -219 -189 -234c21 -7 38 -25 31 -53c-9 -36 -58 -68 -100 -83l-13 51c-1 0 33 11 36 23z" />
    <glyph glyph-name="eth" unicode="&#xf0;" horiz-adv-x="375" 
d="M146 0h-144l74 300h-87l17 73h88l76 301h144c122 0 146 -84 119 -192l-73 -290c-27 -109 -91 -192 -214 -192zM93 73h65c74 0 113 55 131 124l69 280c18 69 6 125 -68 125h-65l-58 -229h80l-18 -73h-80zM152 28c103 0 158 70 181 164l73 290c23 92 3 165 -99 165h-116
l-75 -302h-89l-5 -17h89l-75 -300h116zM59 45l70 283h79l5 17h-79l70 284h92c94 0 111 -67 89 -152l-69 -280c-22 -85 -71 -152 -165 -152h-92z" />
    <glyph glyph-name="oslash" unicode="&#xf8;" 
d="M409 486l-74 -297c-20 -77 -71 -144 -156 -144c-34 0 -63 14 -80 39l313 481c2 -25 3 -53 -3 -79zM324 629c36 0 67 -13 83 -42c-104 -162 -210 -323 -316 -484c-3 27 -4 57 4 86l74 297c18 74 71 143 155 143zM446 647c-9 -14 -17 -28 -26 -41c-23 25 -54 41 -91 41
c-96 0 -156 -74 -177 -161l-74 -297c-10 -37 -15 -77 -3 -109l-32 -52h19c7 11 16 23 23 34c22 -23 53 -34 89 -34c98 0 156 69 179 161l74 297c8 35 9 70 -1 100l40 61h-20zM432 674h83l-58 -86c8 -32 7 -66 -2 -102l-74 -297c-27 -107 -96 -189 -213 -189
c-30 0 -58 7 -80 21l-12 -21h-77l46 77c-9 35 -5 75 5 112l74 297c25 102 97 188 212 188c32 0 58 -9 81 -25zM318 602c-65 0 -106 -56 -121 -116l-72 -287c86 132 163 249 248 382c-12 15 -32 21 -55 21zM125 199v0zM186 73c66 0 105 54 121 116l67 272l-241 -370
c13 -11 32 -18 53 -18zM374 461v0z" />
  </font>
</defs>
</svg>
